<svg xmlns="http://www.w3.org/2000/svg" width="40.937" height="45.91" viewBox="0 0 40.937 45.91">
  <g id="图层_1" data-name="图层 1" transform="translate(-12.767 -12.751)">
    <path id="路径_1453" data-name="路径 1453" d="M37.134,56.379c-4.772-.069-10.168.394-14.381-2.258-4.936-3.106-7.194-8.43-7.574-14.029a41.9,41.9,0,0,1,.765-13.248c.866-3.357,2.174-6.011,4.968-8.181a18.913,18.913,0,0,1,11.06-3.643c3.97-.123,8.372.388,11.815,2.46.181.108.358.221.534.337,6.988,4.626,7.136,13.4,7.134,20.861a15.036,15.036,0,0,1-.647,5.241A5.022,5.022,0,0,1,46.054,47.2c-3.454.139-5.523-2.574-6.033-5.631a39.127,39.127,0,0,1-.05-6.967,10.861,10.861,0,0,0-1.653-6.663,6.78,6.78,0,0,0-8.2-1.912,6.382,6.382,0,0,0-3.482,4.981,22.828,22.828,0,0,0-.193,7.266c.295,2.456,1.3,5.388,3.066,6.644s3.472.962,4.952,1.034" transform="translate(0 0)" fill="none" stroke="#333" stroke-linecap="round" stroke-miterlimit="10" stroke-width="4.5"/>
  </g>
</svg>
