<svg xmlns="http://www.w3.org/2000/svg" xmlns:xlink="http://www.w3.org/1999/xlink" width="237" height="238" viewBox="0 0 237 238">
  <defs>
    <linearGradient id="linear-gradient" x1="0.5" x2="0.5" y2="1" gradientUnits="objectBoundingBox">
      <stop offset="0" stop-color="#1b82a2"/>
      <stop offset="1" stop-color="#184087"/>
    </linearGradient>
    <filter id="矩形_5806" x="0" y="0" width="237" height="238" filterUnits="userSpaceOnUse">
      <feOffset dx="11" dy="13" input="SourceAlpha"/>
      <feGaussianBlur stdDeviation="7.5" result="blur"/>
      <feFlood flood-color="#2a4667" flood-opacity="0.161"/>
      <feComposite operator="in" in2="blur"/>
      <feComposite in="SourceGraphic"/>
    </filter>
    <linearGradient id="linear-gradient-2" x1="0.5" x2="0.5" y2="1" gradientUnits="objectBoundingBox">
      <stop offset="0" stop-color="#8b7777" stop-opacity="0"/>
      <stop offset="1" stop-color="#545454" stop-opacity="0"/>
    </linearGradient>
  </defs>
  <g id="组_1" data-name="组 1" transform="translate(-250.5 -166.5)">
    <g transform="matrix(1, 0, 0, 1, 250.5, 166.5)" filter="url(#矩形_5806)">
      <rect id="矩形_5806-2" data-name="矩形 5806" width="192" height="193" rx="57" transform="translate(11.5 9.5)" fill="url(#linear-gradient)"/>
    </g>
    <g id="图层_1" data-name="图层 1" transform="translate(315 225.001)">
      <path id="路径_1453" data-name="路径 1453" d="M67.725,109.61c-11.368-.157-24.219.9-34.254-5.164-11.756-7.1-17.134-19.275-18.04-32.078-.711-10.067-.816-20.479,1.821-30.291C19.314,34.4,22.43,28.333,29.084,23.371c7.465-5.567,16.945-8.048,26.344-8.33,9.456-.282,19.942.887,28.141,5.625.432.246.854.506,1.271.77,16.646,10.578,17,30.641,16.992,47.7,0,4-.071,8.182-1.541,11.984-1.8,4.64-5.994,7.309-11.32,7.515-8.228.318-13.155-5.885-14.369-12.875-.915-5.249-.19-10.614-.119-15.929S73.857,48.9,70.547,44.594c-4.41-5.737-12.719-7.273-19.534-4.371-4.809,2.047-7.488,6.646-8.294,11.388a50.138,50.138,0,0,0-.46,16.615c.7,5.616,3.1,12.32,7.3,15.191s8.271,2.2,11.794,2.365" transform="translate(-14.998 -15.003)" stroke="#fff" stroke-linecap="round" stroke-miterlimit="10" stroke-width="14" fill="url(#linear-gradient-2)"/>
    </g>
  </g>
</svg>
