<svg xmlns="http://www.w3.org/2000/svg" width="47.054" height="52.301" viewBox="0 0 47.054 52.301">
  <path id="zhanghaoanquan" d="M106.288,77.3a30.845,30.845,0,0,1-6.147,7.864,36.546,36.546,0,0,1-7.713,5.493,15.731,15.731,0,0,1-7.149,2.16h-.005a15.784,15.784,0,0,1-7.155-2.16A36.7,36.7,0,0,1,70.4,85.16,30.84,30.84,0,0,1,64.259,77.3a17.92,17.92,0,0,1-2.512-8.7V51.06a3.5,3.5,0,0,1,3.242-3.573c.3-.016.558-.028.709-.041a36.833,36.833,0,0,0,3.894-.657,30.738,30.738,0,0,0,5.144-1.5,65.346,65.346,0,0,0,7.479-3.933,5.965,5.965,0,0,1,6.116,0,65.413,65.413,0,0,0,7.482,3.937,30.779,30.779,0,0,0,5.146,1.5,36.733,36.733,0,0,0,3.888.657c.152.013.4.026.711.041A3.5,3.5,0,0,1,108.8,51.06V68.6a17.924,17.924,0,0,1-2.512,8.7ZM92.97,58.123,83.515,68.994l-4.731-3.965a2.2,2.2,0,0,0-3.1.263,2.48,2.48,0,0,0-.589,1.806,2.433,2.433,0,0,0,.848,1.686l6.421,5.428a2.2,2.2,0,0,0,3.1-.242L96.379,61.438a2.477,2.477,0,0,0,.605-1.791,2.439,2.439,0,0,0-.819-1.692l-.058-.05a2.2,2.2,0,0,0-3.138.218Z" transform="translate(-61.747 -40.512)" fill="#272727"/>
</svg>
