<svg xmlns="http://www.w3.org/2000/svg" width="44.7" height="48.252" viewBox="0 0 44.7 48.252">
  <g id="图层_1" data-name="图层 1" transform="translate(2.503 2.501)">
    <path id="路径_1453" data-name="路径 1453" d="M39.1,60.754h-.035c-.736-.01-1.479-.009-2.266-.008-4.75.008-10.134.017-14.652-2.713C16.578,54.667,13.222,48.761,12.7,41.4c-.312-4.417-.448-9.614.912-14.674a20.433,20.433,0,0,1,2.191-5.384,15.65,15.65,0,0,1,4.138-4.523,23.516,23.516,0,0,1,13.463-4.3c5.778-.172,10.55.8,14.184,2.9.2.117.419.247.674.408a17.061,17.061,0,0,1,5.18,5.1,20.356,20.356,0,0,1,2.643,6.189,51.909,51.909,0,0,1,1.108,12.635,17.2,17.2,0,0,1-.873,6.38,7.957,7.957,0,0,1-7.41,5.032,8.334,8.334,0,0,1-6.341-2.41,10.291,10.291,0,0,1-2.788-5.546,25.6,25.6,0,0,1-.165-5.749c.033-.692.065-1.346.074-1.995.034-2.508-.374-4.226-1.282-5.408a5.128,5.128,0,0,0-5.968-1.221,4.325,4.325,0,0,0-2.307,3.325,20.424,20.424,0,0,0-.194,6.868c.288,2.306,1.242,4.489,2.268,5.19a4.872,4.872,0,0,0,3.035.63c.344,0,.7,0,1.064.018a2.5,2.5,0,1,1-.235,4.994c-.251-.012-.536-.012-.837-.013a9.555,9.555,0,0,1-5.847-1.5c-3.371-2.3-4.228-7.241-4.41-8.7a25.363,25.363,0,0,1,.227-8.326,10.244,10.244,0,0,1,1.613-4.06,8.485,8.485,0,0,1,3.664-3.027,10.733,10.733,0,0,1,6.375-.627,9.382,9.382,0,0,1,5.516,3.4c2.142,2.788,2.348,6.2,2.317,8.522-.01.737-.045,1.465-.079,2.169a21.535,21.535,0,0,0,.1,4.65c.161.927.925,3.937,4.01,3.818a3.036,3.036,0,0,0,2.94-1.84,13,13,0,0,0,.536-4.576c0-8.477-.493-15.81-6.609-19.7-.188-.119-.341-.212-.479-.291l-.012-.007c-2.779-1.606-6.769-2.38-11.54-2.237a18.865,18.865,0,0,0-10.623,3.313c-2.27,1.693-3.571,3.778-4.489,7.2-1.167,4.345-1.036,9.021-.753,13.023.285,4.024,1.738,9.495,7.046,12.7,3.322,2.008,7.763,2,12.058,1.993.771,0,1.568,0,2.343.008a2.5,2.5,0,0,1-.034,5Z" transform="translate(-14.998 -15.002)"/>
  </g>
</svg>
