<svg xmlns="http://www.w3.org/2000/svg" width="40.616" height="40.616" viewBox="0 0 40.616 40.616">
  <path id="品牌_1_" data-name="品牌 (1)" d="M28.824,8.591a3.432,3.432,0,0,0,6.854,0,3.432,3.432,0,0,0-6.854,0ZM.251,24a3.432,3.432,0,0,1,1.015-2.437l19.12-19.1A8.275,8.275,0,0,1,23.128.742,8.265,8.265,0,0,1,26.255,0H37.425a3.3,3.3,0,0,1,2.427,1.015,3.28,3.28,0,0,1,1.015,2.406V14.592a8.255,8.255,0,0,1-.711,3.127,7.981,7.981,0,0,1-1.726,2.7L19.239,39.6a3.28,3.28,0,0,1-2.417,1.015A3.432,3.432,0,0,1,14.385,39.6L1.267,26.4A3.27,3.27,0,0,1,.251,23.994Zm0,0" transform="translate(-0.251 0)" fill="#7ce16d"/>
</svg>
