<svg xmlns="http://www.w3.org/2000/svg" width="48.604" height="42.657" viewBox="0 0 48.604 42.657">
  <path id="yingyongquanxian" d="M44.081,33.2a4.477,4.477,0,0,1,4.51,5.574L44.872,58.286a7.066,7.066,0,0,1-6.638,5.574H6.646a4.479,4.479,0,0,1-4.51-5.574L5.955,38.262A6.225,6.225,0,0,1,12.069,33.2H44.083ZM7.16,21.2H21.8a3.462,3.462,0,0,1,3.5,4.18L24.71,29.04H9.52a6.846,6.846,0,0,0-6.705,5.468l-1.7,8.256A.524.524,0,0,1,.09,42.591L2.3,25.383A5.106,5.106,0,0,1,7.16,21.2Z" transform="translate(-0.088 -21.203)" fill="#272727"/>
</svg>
