<svg xmlns="http://www.w3.org/2000/svg" width="70.947" height="93.782" viewBox="0 0 70.947 93.782">
  <path id="文案_1_" data-name="文案 (1)" d="M220.575,146.149H191.085a2.43,2.43,0,0,1-2.761-2.73v-.913a2.43,2.43,0,0,1,2.761-2.73h29.479a2.425,2.425,0,0,1,2.761,2.73v.913A2.909,2.909,0,0,1,220.575,146.149ZM205.835,64.2h-.924A34.79,34.79,0,0,0,169.9,98.8v.913a34.79,34.79,0,0,0,35.011,34.6h.924a34.79,34.79,0,0,0,35.011-34.6V98.8A34.79,34.79,0,0,0,205.835,64.2Zm23.946,31.866a3.685,3.685,0,0,1-7.37,0c0-12.747-10.131-14.563-11.978-14.563a3.644,3.644,0,1,1,0-7.287h.924C217.814,74.217,229.782,79.676,229.782,96.066Zm-37.773,55.543H217.8s-10.131,6.373-12.9,6.373C203.064,157.982,192.009,151.609,192.009,151.609Zm0,0" transform="translate(-169.9 -64.2)" fill="#6d6d6d"/>
</svg>
