<svg xmlns="http://www.w3.org/2000/svg" width="46.258" height="50.038" viewBox="0 0 46.258 50.038">
  <g id="图层_1" data-name="图层 1" transform="translate(-12.994 -13.002)">
    <path id="路径_1453" data-name="路径 1453" d="M40.656,63.039h-.028c-.789-.011-1.582-.01-2.422-.008-4.969.009-10.6.018-15.253-2.793a19.139,19.139,0,0,1-7.1-7.541,24.1,24.1,0,0,1-2.637-9.639c-.328-4.646-.472-10.109.95-15.4a21.112,21.112,0,0,1,2.26-5.561,16.009,16.009,0,0,1,4.233-4.626,24.377,24.377,0,0,1,13.955-4.449c6.027-.18,10.989.83,14.75,3,.209.119.429.253.692.419a17.5,17.5,0,0,1,5.314,5.227,21.018,21.018,0,0,1,2.726,6.39c1.161,4.535,1.159,9.592,1.158,13.284a17.763,17.763,0,0,1-.885,6.552,7.826,7.826,0,0,1-7.3,4.934,8.225,8.225,0,0,1-6.259-2.375,10.289,10.289,0,0,1-2.781-5.546,26.742,26.742,0,0,1-.166-5.974c.036-.743.07-1.444.079-2.146.038-2.826-.439-4.786-1.5-6.168a6.053,6.053,0,0,0-7.136-1.505,5.248,5.248,0,0,0-2.848,4.037,22.31,22.31,0,0,0-.211,7.5c.333,2.668,1.443,5.131,2.7,5.988a5.822,5.822,0,0,0,3.6.786c.359,0,.729,0,1.1.019a2,2,0,1,1-.188,4c-.283-.013-.593-.014-.921-.014a9.6,9.6,0,0,1-5.852-1.482,9.305,9.305,0,0,1-3.117-4.037,17.393,17.393,0,0,1-1.294-4.759,26.408,26.408,0,0,1,.237-8.669,10.238,10.238,0,0,1,1.61-4.058,8.371,8.371,0,0,1,3.614-2.987,10.758,10.758,0,0,1,6.39-.629,9.325,9.325,0,0,1,5.484,3.377c2.154,2.8,2.361,6.285,2.33,8.659-.01.772-.048,1.542-.084,2.286a23.389,23.389,0,0,0,.112,5.1c.4,2.306,1.909,4.727,4.945,4.61a3.916,3.916,0,0,0,3.721-2.381,14.335,14.335,0,0,0,.615-5.109c0-9.222-.548-17.206-7.341-21.523-.21-.133-.381-.237-.537-.326l-.009-.005c-3.108-1.8-7.359-2.627-12.634-2.47a20.733,20.733,0,0,0-11.683,3.657c-2.547,1.9-4,4.222-5.022,8.018-1.268,4.719-1.127,9.766-.823,14.08.314,4.439,1.925,10.479,7.818,14.039,3.694,2.232,8.515,2.224,13.178,2.216.818,0,1.664,0,2.484.008a2,2,0,0,1-.027,4Z" transform="translate(0 0)"/>
  </g>
</svg>
