<svg xmlns="http://www.w3.org/2000/svg" width="37.947" height="41.033" viewBox="0 0 37.947 41.033">
  <g id="图层_1" data-name="图层 1" transform="translate(1.983 2.001)">
    <path id="路径_1453" data-name="路径 1453" d="M35.621,52.007c-4.446-.061-9.473.352-13.4-2.02-4.6-2.778-6.7-7.539-7.056-12.547a36.007,36.007,0,0,1,.712-11.848,12.374,12.374,0,0,1,4.628-7.317,18.116,18.116,0,0,1,10.3-3.258c3.7-.11,7.8.347,11.007,2.2.169.1.334.2.5.3,6.511,4.137,6.648,11.985,6.646,18.657a12.941,12.941,0,0,1-.6,4.687A4.675,4.675,0,0,1,43.931,43.8c-3.218.124-5.146-2.3-5.62-5.036a33.6,33.6,0,0,1-.046-6.231,9.412,9.412,0,0,0-1.54-5.959,6.489,6.489,0,0,0-7.641-1.71,5.72,5.72,0,0,0-3.244,4.454,19.611,19.611,0,0,0-.18,6.5c.275,2.2,1.213,4.819,2.857,5.942s3.235.86,4.613.925" transform="translate(-14.998 -15.003)" fill="none" stroke="#000" stroke-linecap="round" stroke-miterlimit="10" stroke-width="4"/>
  </g>
</svg>
