<?xml version="1.0" standalone="no"?><!DOCTYPE svg PUBLIC "-//W3C//DTD SVG 1.1//EN" "http://www.w3.org/Graphics/SVG/1.1/DTD/svg11.dtd"><svg t="1715772360673" class="icon" viewBox="0 0 1024 1024" version="1.1" xmlns="http://www.w3.org/2000/svg" p-id="10940" xmlns:xlink="http://www.w3.org/1999/xlink" width="200" height="200"><path d="M512 0C229.23 0 0 229.23 0 512c0 260.68 194.812 475.856 446.79 507.886C468.144 1022.602 489.908 1024 512 1024s43.856-1.398 65.21-4.114C829.188 987.856 1024 772.68 1024 512 1024 229.23 794.77 0 512 0zM523.542 295.914l8.154-16.524 8.156 16.524 18.234 2.648-13.196 12.864 3.116 18.16-16.31-8.574-16.308 8.574 3.114-18.16-13.196-12.864L523.542 295.914zM451.938 313.822l19.09 38.682 42.686 6.202-30.886 30.108 7.292 42.514-38.18-20.072-38.178 20.072 7.292-42.514-30.886-30.108 42.684-6.202L451.938 313.822zM369.886 289.954l11.046-22.384 11.048 22.384 24.706 3.59-17.876 17.426 4.22 24.604-22.098-11.616-22.094 11.616 4.218-24.604-17.876-17.426L369.886 289.954zM340.79 756.696c-5.236 5.234-13.188 5.77-17.76 1.2l-56.922-56.922c-4.572-4.572-4.038-12.524 1.2-17.76l289.156-289.156 73.48 73.482L340.79 756.696zM696.644 549.556l-22.096-11.616-22.096 11.616 4.22-24.604-17.876-17.426 24.704-3.59 11.046-22.384 11.048 22.384 24.704 3.59-17.876 17.426L696.644 549.556zM756.694 340.79l-95.112 95.112-73.482-73.482 95.112-95.114c5.236-5.234 13.188-5.77 17.76-1.2l56.922 56.924C762.464 327.602 761.928 335.552 756.694 340.79z" fill="#231815" p-id="10941"></path></svg>