<svg xmlns="http://www.w3.org/2000/svg" width="33.738" height="37.376" viewBox="0 0 33.738 37.376">
  <path id="美颜" d="M144.7,122.535l1.057,2.141,2.363.343-1.71,1.667.4,2.353-2.114-1.111-2.114,1.112.4-2.353-1.71-1.667,2.363-.343ZM134.283,112.38l6.837,6.7-3.957,3.958a4.787,4.787,0,0,1-6.641.125l-.129-.125a4.788,4.788,0,0,1,0-6.771Zm21.2,1.764.7,1.428,1.575.228-1.14,1.112.269,1.569-1.409-.741-1.409.741.269-1.569L153.2,115.8l1.576-.228ZM153.6,93.067a4.787,4.787,0,1,1,6.771,6.77l-17.339,17.338-6.837-6.7Zm-23.285,10.289.7,1.428,1.575.228-1.14,1.112.269,1.569-1.408-.741-1.409.741.269-1.569-1.14-1.111,1.576-.229Z" transform="translate(-128.031 -91.665)" fill="#432020"/>
</svg>
