<svg xmlns="http://www.w3.org/2000/svg" width="40.686" height="33.27" viewBox="0 0 40.686 33.27">
  <path id="书架_1_" data-name="书架 (1)" d="M236.739,275.829a2.826,2.826,0,0,1-.523,2.222,2.873,2.873,0,0,1-1.928,1.176l-4.9.784a2.781,2.781,0,0,1-2.189-.523,2.915,2.915,0,0,1-1.209-1.928l-4.182-26.431a2.835,2.835,0,0,1,.065-1.176,3.562,3.562,0,0,1,.457-1.013,2.447,2.447,0,0,1,.849-.784,3.27,3.27,0,0,1,1.111-.425l4.868-.784a2.826,2.826,0,0,1,2.222.523,2.942,2.942,0,0,1,1.176,1.96Zm-20.583-29.045a2.939,2.939,0,0,1,2.091.849,2.809,2.809,0,0,1,.849,2.091v27.313a2.939,2.939,0,0,1-.849,2.091,2.76,2.76,0,0,1-2.091.849h-4.247a2.939,2.939,0,0,1-2.091-.849,2.76,2.76,0,0,1-.849-2.091V249.724a3.463,3.463,0,0,1,.653-2.091,2.212,2.212,0,0,1,1.928-.849Zm0,20.616a.848.848,0,0,0,.686-.392,1.461,1.461,0,0,0,.294-.915,1.491,1.491,0,0,0-.294-.947.81.81,0,0,0-.686-.359h-4.247a.9.9,0,0,0-.686.359,1.49,1.49,0,0,0-.294.947,1.46,1.46,0,0,0,.294.915.848.848,0,0,0,.686.392Zm0-5.195a.848.848,0,0,0,.686-.392,1.674,1.674,0,0,0,0-1.895.81.81,0,0,0-.686-.359h-4.247a.9.9,0,0,0-.686.359,1.674,1.674,0,0,0,0,1.895.848.848,0,0,0,.686.392Zm-12.84-15.421a2.885,2.885,0,0,1,2.091.849,2.84,2.84,0,0,1,.882,2.091v27.313a2.84,2.84,0,0,1-.882,2.091,2.809,2.809,0,0,1-2.091.849h-4.247a2.885,2.885,0,0,1-2.091-.849,2.914,2.914,0,0,1-.882-2.091V249.724a2.84,2.84,0,0,1,.882-2.091,2.809,2.809,0,0,1,2.091-.849Zm-4.084,10.226a.977.977,0,0,0-.751.359,1.491,1.491,0,0,0-.294.948,1.461,1.461,0,0,0,.294.915.874.874,0,0,0,.751.392h3.921a.859.859,0,0,0,.719-.392,1.672,1.672,0,0,0,.261-.915,1.7,1.7,0,0,0-.261-.948.791.791,0,0,0-.719-.359Zm4.084,12.84a.913.913,0,0,0,.719-.359,1.672,1.672,0,0,0,.261-.915,1.521,1.521,0,0,0-.261-.915.868.868,0,0,0-.719-.359h-4.084a.977.977,0,0,0-.751.359,1.339,1.339,0,0,0-.294.915,1.461,1.461,0,0,0,.294.915.846.846,0,0,0,.751.359Zm0-5.031a.913.913,0,0,0,.719-.359,1.848,1.848,0,0,0,0-1.895.792.792,0,0,0-.719-.359h-4.084a.977.977,0,0,0-.751.359,1.673,1.673,0,0,0,0,1.895.846.846,0,0,0,.751.359Z" transform="translate(-196.096 -246.784)" fill="#6ac3ff"/>
</svg>
