<svg xmlns="http://www.w3.org/2000/svg" width="39.201" height="37.442" viewBox="0 0 39.201 37.442">
  <g transform="translate(-178.998 -1512)">
    <path id="探索" d="M158.1,128.959a6.761,6.761,0,0,1,8.552,8.552l-6.092,18.277a6.761,6.761,0,0,1-4.773,4.421L137.2,164.853a6.761,6.761,0,0,1-7.993-8.868l6.085-16.723a6.761,6.761,0,0,1,4.21-4.1Zm3.227,3.148a3.444,3.444,0,0,0-2.179,0l-18.6,6.194a3.444,3.444,0,0,0-2.146,2.092l-6.082,16.723a3.444,3.444,0,0,0,4.072,4.516l18.583-4.643a3.444,3.444,0,0,0,2.434-2.253l6.09-18.277a3.444,3.444,0,0,0-2.176-4.355Zm-13.432,8.848a6.761,6.761,0,1,1-6.761,6.761A6.761,6.761,0,0,1,147.893,140.955Zm0,3.317a3.444,3.444,0,1,0,3.444,3.444A3.444,3.444,0,0,0,147.893,144.272Z" transform="translate(50.701 1383.888)" fill="#252525"/>
    <path id="探索_-_轮廓" data-name="探索 - 轮廓" d="M160.235,128.112a7.261,7.261,0,0,1,6.889,9.557l-6.092,18.277a7.227,7.227,0,0,1-5.126,4.748l-18.586,4.643a7.261,7.261,0,0,1-8.584-9.524l6.085-16.724a7.222,7.222,0,0,1,4.521-4.406l18.6-6.2A7.245,7.245,0,0,1,160.235,128.112ZM135.56,164.555a6.265,6.265,0,0,0,1.517-.187l18.586-4.643a6.232,6.232,0,0,0,4.42-4.094l6.092-18.277a6.261,6.261,0,0,0-7.919-7.919l-18.6,6.2a6.228,6.228,0,0,0-3.9,3.8l-6.085,16.724a6.261,6.261,0,0,0,5.885,8.4Zm25.258-33.146.667.223a3.949,3.949,0,0,1,2.492,4.987l-6.09,18.277a3.925,3.925,0,0,1-2.787,2.58l-18.583,4.643a3.944,3.944,0,0,1-4.663-5.171l6.082-16.724a3.923,3.923,0,0,1,2.457-2.4l18.6-6.195a3.947,3.947,0,0,1,1.829-.159Zm.453,1.208-.1-.034a2.957,2.957,0,0,0-1.862,0l-18.6,6.194a2.928,2.928,0,0,0-1.834,1.788l-6.082,16.724a2.944,2.944,0,0,0,3.481,3.86l18.583-4.643a2.93,2.93,0,0,0,2.081-1.926l6.09-18.277A2.948,2.948,0,0,0,161.27,132.616Zm-13.377,7.839a7.261,7.261,0,1,1-7.261,7.261A7.269,7.269,0,0,1,147.893,140.455Zm0,13.522a6.261,6.261,0,1,0-6.261-6.261A6.268,6.268,0,0,0,147.893,153.977Zm0-10.2a3.944,3.944,0,1,1-3.944,3.944A3.949,3.949,0,0,1,147.893,143.772Zm0,6.888a2.944,2.944,0,1,0-2.944-2.944A2.948,2.948,0,0,0,147.893,150.66Z" transform="translate(50.701 1383.888)" fill="#252525"/>
  </g>
</svg>
