<svg xmlns="http://www.w3.org/2000/svg" width="106" height="62" viewBox="0 0 106 62">
  <g id="组_2609" data-name="组 2609" transform="translate(-299 -1462.75)">
    <rect id="矩形_4937" data-name="矩形 4937" width="106" height="62" rx="26" transform="translate(299 1462.75)"/>
    <g id="组_2564" data-name="组 2564" transform="translate(333.925 1477.764)">
      <path id="直线_564" data-name="直线 564" d="M36.315,3H0A3,3,0,0,1-3,0,3,3,0,0,1,0-3H36.315a3,3,0,0,1,3,3A3,3,0,0,1,36.315,3Z" transform="translate(0 16.542)" fill="#fff"/>
      <path id="直线_565" data-name="直线 565" d="M0,36.013a3,3,0,0,1-3-3V0A3,3,0,0,1,0-3,3,3,0,0,1,3,0V33.013A3,3,0,0,1,0,36.013Z" transform="translate(18.196 0)" fill="#fff"/>
    </g>
  </g>
</svg>
