<svg xmlns="http://www.w3.org/2000/svg" width="38.252" height="34.527" viewBox="0 0 38.252 34.527">
  <g transform="translate(-533 -1514)">
    <path id="message-3-line" d="M2,14.164A11.159,11.159,0,0,1,13.177,3h14.9A11.184,11.184,0,0,1,39.252,14.164V36.527H13.177A11.184,11.184,0,0,1,2,25.363ZM35.527,32.8V14.164a7.459,7.459,0,0,0-7.452-7.439h-14.9a7.433,7.433,0,0,0-7.452,7.439v11.2A7.459,7.459,0,0,0,13.177,32.8ZM24.351,17.9h3.725v3.725H24.351Zm-11.176,0H16.9v3.725H13.176Z" transform="translate(531.5 1511.5)" fill="#252525"/>
    <path id="message-3-line_-_轮廓" data-name="message-3-line - 轮廓" d="M13.177,2.5h14.9A11.684,11.684,0,0,1,39.752,14.164V37.027H13.177A11.684,11.684,0,0,1,1.5,25.363v-11.2A11.659,11.659,0,0,1,13.177,2.5ZM38.752,36.027V14.164A10.683,10.683,0,0,0,28.075,3.5h-14.9A10.683,10.683,0,0,0,2.5,14.164v11.2A10.683,10.683,0,0,0,13.177,36.027ZM13.177,6.225h14.9a7.954,7.954,0,0,1,7.952,7.939V33.3H13.177a7.954,7.954,0,0,1-7.952-7.939v-11.2a7.933,7.933,0,0,1,7.952-7.939ZM35.027,32.3V14.164a6.953,6.953,0,0,0-6.952-6.939h-14.9a6.953,6.953,0,0,0-6.952,6.939v11.2A6.953,6.953,0,0,0,13.177,32.3ZM12.676,17.4H17.4v4.725H12.676Zm3.725,1H13.676v2.725H16.4Zm7.45-1h4.725v4.725H23.851Zm3.725,1H24.851v2.725h2.725Z" transform="translate(531.5 1511.5)" fill="#252525"/>
  </g>
</svg>
