<svg xmlns="http://www.w3.org/2000/svg" width="54.388" height="54.423" viewBox="0 0 54.388 54.423">
  <g id="路径_1775" data-name="路径 1775" transform="translate(27.353 -2.685) rotate(43)" fill="none">
    <path d="M18.247,3.812a2.255,2.255,0,0,1,4.051,0L39.109,38.151A2.255,2.255,0,0,1,37.084,41.4L20.012,34,3.462,41.4a2.255,2.255,0,0,1-2.026-3.247Z" stroke="none"/>
    <path d="M 20.27259635925293 8.77178955078125 L 7.280487060546875 35.30992126464844 L 19.98728179931641 29.63102340698242 L 33.31070709228516 35.40387725830078 L 20.27259635925293 8.77178955078125 M 20.27259635925293 2.548561096191406 C 21.07918167114258 2.548561096191406 21.88576698303223 2.969779968261719 22.29819297790527 3.812213897705078 L 39.10922241210938 38.15099334716797 C 39.84278106689453 39.64937210083008 38.75193023681641 41.39796447753906 37.08362197875977 41.39796447753906 L 20.01223182678223 34.00117492675781 L 3.461570739746094 41.39796447753906 C 1.793262481689453 41.39796447753906 0.702423095703125 39.64937210083008 1.435981750488281 38.15099334716797 L 18.24700164794922 3.812213897705078 C 18.65942764282227 2.969779968261719 19.46601295471191 2.548561096191406 20.27259635925293 2.548561096191406 Z" stroke="none" fill="#252525"/>
  </g>
</svg>
