<svg xmlns="http://www.w3.org/2000/svg" width="30.068" height="37.592" viewBox="0 0 30.068 37.592">
  <path id="优先" d="M247.9,162.342a1.1,1.1,0,0,0-1.694,0l-13.937,15.88c-.466.529-.262.964.455.964h5.211a1.29,1.29,0,0,1,1.3,1.272v10.176a1.29,1.29,0,0,0,1.3,1.272h13.026a1.29,1.29,0,0,0,1.3-1.272V180.458a1.29,1.29,0,0,1,1.3-1.272h5.21c.717,0,.921-.435.456-.964Zm0,0,4.363,32.107H241.839a2.545,2.545,0,1,0,0,5.088h10.421a2.545,2.545,0,1,0,0-5.088Z" transform="translate(-232.016 -161.945)" fill="#714fe6"/>
</svg>
