<?xml version="1.0" standalone="no"?><!DOCTYPE svg PUBLIC "-//W3C//DTD SVG 1.1//EN" "http://www.w3.org/Graphics/SVG/1.1/DTD/svg11.dtd"><svg t="1705908871903" class="icon" viewBox="0 0 1024 1024" version="1.1" xmlns="http://www.w3.org/2000/svg" p-id="77517" xmlns:xlink="http://www.w3.org/1999/xlink" width="200" height="200"><path d="M236.776783 966.146656c-16.505697 0-29.934165-13.425398-29.934166-29.929049 0-90.982425 28.863736-177.524512 83.469974-250.262559a420.356487 420.356487 0 0 1 93.350469-90.804361c32.812864-23.237328 68.538197-41.508314 106.355268-54.401567-79.304918-47.421261-128.067797-132.69234-128.067797-225.419586 0-144.792493 117.80252-262.589896 262.602177-262.589896 144.788399 0 262.580686 117.79638 262.580686 262.589896 0 68.982333-26.647148 134.185415-75.034456 183.597102-48.1898 49.210086-112.468793 77.212156-181.043831 78.887389a29.012122 29.012122 0 0 1-5.934437 0.618107c-0.879062 0-1.769381-0.041958-2.648444-0.12178-196.198699 0.211835-355.765372 160.716924-355.765371 357.908278 0 16.502627-13.426421 29.928025-29.930072 29.928026zM624.552708 112.600805c-111.791331 0-202.737939 90.943538-202.737939 202.728729 0 111.775981 90.946608 202.712355 202.737939 202.712356 111.781098 0 202.720542-90.936374 202.720542-202.712356 0-111.785191-90.938421-202.728729-202.720542-202.728729z" p-id="77518"></path><path d="M29.933142 888.247828c-16.503651 0-29.931095-13.427445-29.931095-29.931096 0-76.43236 22.600801-149.431362 65.361702-211.104891 39.813637-57.421488 93.714784-100.475069 156.374828-125.028433-27.909969-19.304574-51.375505-45.265051-68.258821-75.629025-19.222706-34.565872-29.382577-74.072502-29.382577-114.243291 0-125.23208 96.930166-227.118355 216.074305-227.118355 16.503651 0 29.931095 13.426421 29.931095 29.930072s-13.427445 29.929049-29.931095 29.929048c-86.136838 0-156.214161 75.03241-156.214161 167.258212 0 92.228872 70.077323 167.262305 156.214161 167.262304 16.503651 0 29.931095 13.427445 29.931095 29.934166v0.190344c0 16.501604-13.426421 29.927002-29.930072 29.927002-154.559396 0-280.303153 133.994048-280.303153 298.691824 0 16.504674-13.428468 29.932119-29.936212 29.932119zM364.730987 529.697906zM839.721344 971.259339c-17.216929 0-31.224616-14.007687-31.224617-31.224617V811.997625H686.664234c-17.216929 0-31.224616-14.007687-31.224617-31.226663 0-17.216929 14.007687-31.224616 31.224617-31.224616h121.833516V633.920502c0-17.216929 14.007687-31.224616 31.224617-31.224616s31.226663 14.007687 31.226663 31.224616v115.626867H992.7805c17.216929 0 31.224616 14.007687 31.224617 31.224617 0 17.218976-14.007687 31.226663-31.224617 31.226663H870.948007v128.037096c0 17.216929-14.009734 31.223593-31.226663 31.223594z" p-id="77519"></path></svg>