<svg xmlns="http://www.w3.org/2000/svg" width="42.373" height="36.456" viewBox="0 0 42.373 36.456">
  <path id="照相机" d="M21.207,83.7A9.3,9.3,0,1,0,30.534,93,9.312,9.312,0,0,0,21.207,83.7Zm-.049,15.946a6.607,6.607,0,1,1,6.628-6.608,6.618,6.618,0,0,1-6.628,6.608ZM37.311,77.672h-6.18l-2.293-4.938a1.253,1.253,0,0,0-1.048-.726A1.147,1.147,0,0,0,27.659,72H15a1.167,1.167,0,0,0-.688.227,1.364,1.364,0,0,0-.491.55l-2.311,4.894H7.958V76.263A1.4,1.4,0,0,0,6.6,74.825a1.4,1.4,0,0,0-1.362,1.438v1.409H5.062A5.208,5.208,0,0,0,0,83.014v20.1a5.207,5.207,0,0,0,5.062,5.342h32.25a5.13,5.13,0,0,0,5.062-5.254V83.015a5.208,5.208,0,0,0-5.062-5.342Zm2.531,25.442a2.6,2.6,0,0,1-2.531,2.671H5.062a2.6,2.6,0,0,1-2.531-2.671V83.1A2.6,2.6,0,0,1,5.062,80.43h7.393v-.007a1.264,1.264,0,0,0,.981-.721l2.3-4.877h11.2L29.205,79.7a1.261,1.261,0,0,0,1,.724v0h7.1A2.6,2.6,0,0,1,39.842,83.1v20.012h0Zm-6.7-19.848a1.4,1.4,0,1,0,1.328,1.4,1.365,1.365,0,0,0-1.328-1.4Z" transform="translate(0 -72)" fill="#333"/>
</svg>
