<svg xmlns="http://www.w3.org/2000/svg" width="39.317" height="39.325" viewBox="0 0 39.317 39.325">
  <path id="挑战者" d="M160.807,154.782q-2.84,2.968-5.71,5.909a.812.812,0,0,1-1.267-.1.87.87,0,0,1-.033-1.276c.045-.053.1-.1.147-.15.727-.762.727-.762.011-1.5-1.407-1.456-2.822-2.9-4.21-4.375-.293-.311-.443-.281-.709.012-.609.674-1.253,1.312-1.885,1.965a1.67,1.67,0,0,1-2.787.015l-.254-.263a1.75,1.75,0,0,1-.006-2.623q3.12-3.243,6.252-6.476,1.218-1.261,2.438-2.52a1.614,1.614,0,0,1,2.531,0c.777.788.946,1.087.951,1.684a1.754,1.754,0,0,1-.528,1.282c-.72.738-1.424,1.487-2.151,2.216-.213.213-.255.328-.017.573q2.4,2.449,4.766,4.93c.212.222.336.215.522-.011a7.033,7.033,0,0,1,.617-.639.822.822,0,0,1,1.232.041A.857.857,0,0,1,160.807,154.782Zm-2.564-24.564c-3.74,3.444-7.471,6.9-11.216,10.338-.316.289-.346.44-.051.765.878.972,1.714,1.983,2.583,2.966.213.24.249.376,0,.63q-2.021,2.051-4,4.142c-.225.237-.348.221-.571.008-1.088-1.026-2.2-2.029-3.288-3.061-.237-.225-.358-.2-.579.009-1.063,1.005-2.156,1.979-3.212,2.99-.3.289-.453.252-.721-.033q-1.944-2.053-3.927-4.068c-.221-.224-.237-.345-.023-.587.895-1.005,1.749-2.048,2.651-3.045.274-.305.218-.435-.053-.685q-5.617-5.159-11.219-10.337a2.811,2.811,0,0,1-.963-1.921q-.256-3.13-.553-6.257c-.038-.407.089-.517.361-.41,2.153.2,4.219.376,6.284.577a2.3,2.3,0,0,1,1.551.85q4.875,5.669,9.747,11.336c.31.364.441.354.747,0q4.823-5.644,9.673-11.26a2.416,2.416,0,0,1,1.625-.921c2.083-.2,4.165-.376,6.248-.585.364-.038.423.079.39.419q-.3,3.178-.57,6.359A2.648,2.648,0,0,1,158.243,130.217Zm-34.854,23.261c.3.255.52.8.859.75.316-.048.574-.514.853-.8,1.371-1.418,2.736-2.842,4.116-4.248.236-.24.249-.369,0-.612-.721-.709-1.416-1.445-2.115-2.178a1.748,1.748,0,0,1,0-2.586c.133-.141.266-.278.4-.414a1.611,1.611,0,0,1,2.532.018q4.331,4.478,8.656,8.962a1.754,1.754,0,0,1,0,2.661c-.779.816-1.034.969-1.634.969a1.614,1.614,0,0,1-1.229-.565c-.714-.744-1.436-1.477-2.141-2.228-.193-.206-.305-.24-.52-.017q-2.389,2.5-4.8,4.972c-.189.193-.2.311,0,.493a7.272,7.272,0,0,1,.656.674.874.874,0,0,1-.054,1.276.815.815,0,0,1-1.268.077q-2.85-2.925-5.675-5.874a.858.858,0,0,1,.045-1.311.826.826,0,0,1,1.271-.05Z" transform="translate(-121.753 -121.624)" fill="#bb49dc"/>
</svg>
