<?xml version="1.0" standalone="no"?><!DOCTYPE svg PUBLIC "-//W3C//DTD SVG 1.1//EN" "http://www.w3.org/Graphics/SVG/1.1/DTD/svg11.dtd"><svg class="icon" width="200px" height="200.00px" viewBox="0 0 1024 1024" version="1.1" xmlns="http://www.w3.org/2000/svg"><path d="M512 90.125c-232.622 0-421.875 189.274-421.875 421.875 0 232.622 189.253 421.875 421.875 421.875s421.875-189.253 421.875-421.875c0-232.601-189.253-421.875-421.875-421.875zM512 761.096c-127.744 0-231.293-103.549-231.293-231.293h88.972c0 78.638 63.704 142.342 142.32 142.342s142.32-63.725 142.32-142.342c0-78.616-63.703-142.34-142.32-142.34v88.972l-142.32-124.516 142.32-124.559v71.149c127.744 0 231.293 103.55 231.293 231.293s-103.55 231.293-231.293 231.293z" /></svg>