<svg xmlns="http://www.w3.org/2000/svg" width="49.625" height="47.376" viewBox="0 0 49.625 47.376">
  <path id="多边形_151" data-name="多边形 151" d="M26,1.42a4.988,4.988,0,0,1,4.42,2.663L35.4,13.5a1.006,1.006,0,0,0,.718.519l10.527,1.772a5,5,0,0,1,2.729,8.443l-7.432,7.53a1,1,0,0,0-.277.849l1.549,10.448a4.992,4.992,0,0,1-7.149,5.222l-9.619-4.722a1.017,1.017,0,0,0-.881,0L15.94,48.278a5,5,0,0,1-7.149-5.222L10.34,32.608a1,1,0,0,0-.277-.849l-7.432-7.53a5,5,0,0,1,2.729-8.443l10.527-1.772A1.006,1.006,0,0,0,16.6,13.5L21.58,4.083A4.988,4.988,0,0,1,26,1.42ZM38.265,44.8a1.03,1.03,0,0,0,.765-.362.959.959,0,0,0,.222-.791L37.7,33.2a5.025,5.025,0,0,1,1.387-4.246l7.432-7.53a1,1,0,0,0-.546-1.689L35.45,17.959a5.03,5.03,0,0,1-3.591-2.594L26.884,5.952a1,1,0,0,0-1.768,0l-4.975,9.412a5.03,5.03,0,0,1-3.591,2.594L6.023,19.731a1,1,0,0,0-.546,1.689l7.432,7.53A5.025,5.025,0,0,1,14.3,33.2L12.747,43.643a.959.959,0,0,0,.222.791,1.03,1.03,0,0,0,.765.362,1,1,0,0,0,.443-.108L23.8,39.965a5,5,0,0,1,4.407,0l9.619,4.722A1,1,0,0,0,38.265,44.8Z" transform="translate(-1.187 -1.42)" fill="#010101"/>
</svg>
