<svg xmlns="http://www.w3.org/2000/svg" width="45.633" height="43.764" viewBox="0 0 45.633 43.764">
  <path id="Star-1--Streamline-Core图标" d="M25.988,2.1l5.594,11.3a1.8,1.8,0,0,0,1.443,1.056l12.35,1.83a1.9,1.9,0,0,1,1.056,3.272l-8.9,8.832a1.867,1.867,0,0,0-.563,1.689L39.112,42.5A1.935,1.935,0,0,1,36.3,44.537L25.179,38.661a2.078,2.078,0,0,0-1.83,0L12.231,44.537A1.935,1.935,0,0,1,9.416,42.5l2.146-12.562A1.865,1.865,0,0,0,11,28.246L1.992,19.554a1.9,1.9,0,0,1,1.161-3.272l12.35-1.83A1.794,1.794,0,0,0,16.946,13.4L22.54,2.1a1.9,1.9,0,0,1,3.448,0Z" transform="translate(-1.4 -1)" fill="#4959fb"/>
</svg>
