<svg xmlns="http://www.w3.org/2000/svg" width="46.648" height="45.057" viewBox="0 0 46.648 45.057">
  <path id="消息中心_1_" data-name="消息中心 (1)" d="M20.778,67.832c-1.869,0-3.7-.021-5.315-.04-1.3-.015-2.426-.028-3.351-.028H9.766l.37-2.315a20.571,20.571,0,0,1,.461-2.03,15.08,15.08,0,0,0,.43-1.967c-.1-.1-.209-.211-.324-.345-.409-.473-.7-.77-.985-1.057a16.925,16.925,0,0,1-2.726-3.613,20.414,20.414,0,0,1-3.042-9.448,22.31,22.31,0,0,1,1.482-9.581,23,23,0,0,1,5.712-8.435,22.558,22.558,0,0,1,9.407-5.26,24.986,24.986,0,0,1,6.723-.937A23.57,23.57,0,0,1,39.521,26.2a23.307,23.307,0,0,1,8.4,8.786,21.509,21.509,0,0,1,2.618,10.87,22.414,22.414,0,0,1-3.8,11.682,23.2,23.2,0,0,1-13.666,9.5C30.867,67.581,26.961,67.832,20.778,67.832Zm-6.142-4.05.873.01c1.6.019,3.423.04,5.269.04,2.122,0,8.581,0,11.343-.676a19.105,19.105,0,0,0,11.267-7.8A17.6,17.6,0,0,0,44.4,36.892,19.42,19.42,0,0,0,27.273,26.775a20.987,20.987,0,0,0-5.646.789A18.654,18.654,0,0,0,9.158,38.858a17.214,17.214,0,0,0,1.23,15.467,13.091,13.091,0,0,0,2.177,2.917c.3.3.667.677,1.162,1.249a1.916,1.916,0,0,0,.245.233,2.843,2.843,0,0,1,.906,1.212,3.718,3.718,0,0,1,.152,1.678A14.09,14.09,0,0,1,14.635,63.783Z" transform="translate(-3.898 -22.775)"/>
</svg>
