<svg xmlns="http://www.w3.org/2000/svg" width="114" height="115" viewBox="0 0 114 115">
  <g id="组_2540" data-name="组 2540" transform="translate(471 -1257)">
    <g id="组_2541" data-name="组 2541" transform="translate(-789 -22)">
      <g id="组_2474" data-name="组 2474" transform="translate(-10)">
        <path id="排除_20" data-name="排除 20" d="M49,56H0V0H49V56ZM24.5,7.139a8.947,8.947,0,0,0-8.836,9.034,8.838,8.838,0,1,0,17.672,0A8.947,8.947,0,0,0,24.5,7.139Z" transform="translate(377 1335)" fill="#029e40"/>
        <path id="多边形_139" data-name="多边形 139" d="M37.519,1.633a2,2,0,0,1,2.963,0L74.967,39.656A2,2,0,0,1,73.486,43H4.514a2,2,0,0,1-1.481-3.344Z" transform="translate(364 1298)" fill="#029e40"/>
        <rect id="矩形_4845" data-name="矩形 4845" width="107" height="4" rx="2" transform="translate(330 1390)" fill="#029e40"/>
        <rect id="矩形_4846" data-name="矩形 4846" width="9" height="73" transform="translate(341 1319)" fill="#029e40"/>
        <path id="多边形_140" data-name="多边形 140" d="M18.5,0,37,31H0Z" transform="translate(328 1302)" fill="#029e40"/>
        <path id="多边形_141" data-name="多边形 141" d="M18.5,0,37,27H0Z" transform="translate(328 1292)" fill="#029e40"/>
        <path id="多边形_142" data-name="多边形 142" d="M18.5,0,37,27H0Z" transform="translate(328 1279)" fill="#029e40"/>
        <rect id="矩形_4847" data-name="矩形 4847" width="7" height="18" transform="translate(373 1373)" fill="#029e40"/>
      </g>
    </g>
  </g>
</svg>
