<svg xmlns="http://www.w3.org/2000/svg" width="24.321" height="25.576" viewBox="0 0 24.321 25.576">
  <g id="复制" transform="translate(-155.477 -119.467)">
    <path id="路径_1504" data-name="路径 1504" d="M172.613,283.819H157.182a1.7,1.7,0,0,0-1.705,1.705v16.693a1.7,1.7,0,0,0,1.705,1.705h15.437a1.7,1.7,0,0,0,1.705-1.705V285.524a1.711,1.711,0,0,0-1.711-1.705Zm-.568,17.83H157.75V286.092h14.3v15.556Z" transform="translate(0 -158.879)" fill="#333"/>
    <path id="路径_1505" data-name="路径 1505" d="M324.269,119.467H309.19a1.137,1.137,0,0,0,0,2.273h15.079a.75.75,0,0,1,.75.75v16.96a1.137,1.137,0,1,0,2.273,0v-16.96A3.03,3.03,0,0,0,324.269,119.467Z" transform="translate(-147.496)" fill="#333"/>
  </g>
</svg>
