<svg xmlns="http://www.w3.org/2000/svg" width="34.973" height="30.789" viewBox="0 0 34.973 30.789">
  <path id="图片_4_" data-name="图片 (4)" d="M118.807,154.956v8.4a4.6,4.6,0,0,1-4.6,4.6H89.936a4.6,4.6,0,0,1-4.6-4.6V143.269a4.6,4.6,0,0,1,4.6-4.6H114.2a4.6,4.6,0,0,1,4.6,4.6Zm-2.51-2.927v-8.759a2.092,2.092,0,0,0-2.092-2.092H89.936a2.092,2.092,0,0,0-2.092,2.092v13.512a11.378,11.378,0,0,1,1.674-.123,11.253,11.253,0,0,1,7.19,2.583,13.977,13.977,0,0,1,19.588-7.213Zm0,3.226a4.73,4.73,0,0,0-1.712-1.291,11.5,11.5,0,0,0-15.59,6.331q-.161.438-.549,1.513a1.255,1.255,0,0,1-2.015.512c-.645-.574-1.12-.983-1.418-1.222a8.743,8.743,0,0,0-5.494-1.929,8.833,8.833,0,0,0-1.674.159v4.025a2.092,2.092,0,0,0,2.092,2.092H114.2a2.092,2.092,0,0,0,2.092-2.092v-8.1Zm-21.757-3.2A3.766,3.766,0,1,1,98.3,148.29,3.766,3.766,0,0,1,94.539,152.056Zm0-2.51a1.255,1.255,0,1,0-1.255-1.255A1.255,1.255,0,0,0,94.539,149.546Z" transform="translate(-84.584 -137.917)" fill="#333" stroke="#333" stroke-width="1.5"/>
</svg>
