<svg xmlns="http://www.w3.org/2000/svg" xmlns:xlink="http://www.w3.org/1999/xlink" width="35.295" height="40.337" viewBox="0 0 35.295 40.337">
  <defs>
    <linearGradient id="linear-gradient" x1="0.5" x2="0.5" y2="1" gradientUnits="objectBoundingBox">
      <stop offset="0" stop-color="#f3a928"/>
      <stop offset="0.192" stop-color="#e2c018"/>
      <stop offset="0.494" stop-color="#2cd2ec"/>
      <stop offset="0.778" stop-color="#884def"/>
      <stop offset="1" stop-color="#fe47c1"/>
    </linearGradient>
  </defs>
  <path id="创作中心" d="M203.829,139.636a17.7,17.7,0,0,0-17.647,17.647A17.458,17.458,0,0,0,194,171.906v4.916a3.121,3.121,0,0,0,3.151,3.151H210.51a3.121,3.121,0,0,0,3.151-3.151v-4.916a17.626,17.626,0,0,0-9.832-32.269Zm-1.639,9.832a1.784,1.784,0,0,1,1.639-1.765h.126a1.229,1.229,0,0,1,1.134.5,1.618,1.618,0,0,1,.5,1.26v1.261a1.784,1.784,0,0,1-1.639,1.765h-.126a1.7,1.7,0,0,1-1.639-1.765Zm-7.185,3.277a1.492,1.492,0,0,1-.126-1.261,1.566,1.566,0,0,1,.756-1.008l.126-.126a1.822,1.822,0,0,1,.882-.252,1.922,1.922,0,0,1,1.513.882l.63,1.134a1.492,1.492,0,0,1,.126,1.261,1.565,1.565,0,0,1-.756,1.008l-.126.126a1.822,1.822,0,0,1-.882.252,1.922,1.922,0,0,1-1.513-.882Zm15.631,8.572-4.664,2.647v6.177a2.143,2.143,0,1,1-4.286,0v-6.177l-4.664-2.647a2.119,2.119,0,1,1,2.143-3.656l4.664,2.647,4.664-2.647a2.068,2.068,0,0,1,2.9.756A2.178,2.178,0,0,1,210.636,161.317Zm2.647-8.572-.63,1.134a1.749,1.749,0,0,1-1.513.882,2.337,2.337,0,0,1-.882-.252l-.126-.126a1.96,1.96,0,0,1-.756-1.008,2.074,2.074,0,0,1,.126-1.261l.63-1.134a1.749,1.749,0,0,1,1.513-.882,2.337,2.337,0,0,1,.882.252l.126.126a1.96,1.96,0,0,1,.756,1.008C213.661,151.863,213.535,152.241,213.283,152.746Z" transform="translate(-186.182 -139.636)" fill="url(#linear-gradient)"/>
</svg>
