<svg xmlns="http://www.w3.org/2000/svg" width="44.364" height="49.481" viewBox="0 0 44.364 49.481">
  <g id="图层_1" data-name="图层 1" transform="translate(-11.517 -11.501)">
    <path id="路径_1453" data-name="路径 1453" d="M37.7,57.432c-4.894-.07-10.427.4-14.747-2.316-5.061-3.185-7.377-8.644-7.767-14.387a42.968,42.968,0,0,1,.784-13.585c.888-3.442,2.23-6.164,5.094-8.389A19.394,19.394,0,0,1,32.4,15.02c4.071-.127,8.585.4,12.115,2.523.186.11.368.227.547.345,7.166,4.744,7.317,13.742,7.315,21.392a15.418,15.418,0,0,1-.664,5.375,5.15,5.15,0,0,1-4.873,3.37c-3.542.143-5.664-2.639-6.186-5.774a40.123,40.123,0,0,1-.051-7.144,11.137,11.137,0,0,0-1.695-6.833,6.952,6.952,0,0,0-8.41-1.96,6.545,6.545,0,0,0-3.571,5.107,23.409,23.409,0,0,0-.2,7.451c.3,2.519,1.335,5.525,3.144,6.813s3.561.986,5.078,1.06" transform="translate(0 0)" fill="none" stroke="#586495" stroke-linecap="round" stroke-miterlimit="10" stroke-width="7"/>
  </g>
</svg>
