<svg xmlns="http://www.w3.org/2000/svg" width="56.759" height="55.716" viewBox="0 0 56.759 55.716">
  <g id="组_2572" data-name="组 2572" transform="translate(-104.519 -1556.447)">
    <path id="路径_1457" data-name="路径 1457" d="M25.875,1.878c2.578-.157,21.267,11.445,22.986,12.434,2.229,1.812,2.4,4.747-.114,6.958-1.242.587-19.26,10.4-23.044,9.8-6.118-1.579-23.361-10.49-23.361-10.49s-5.255-4.775.8-9.7C3.972,10.618,22.663,1.662,25.875,1.878Z" transform="translate(103.075 1589.574) rotate(-43)" fill="#252525"/>
    <path id="路径_1457_-_轮廓" data-name="路径 1457 - 轮廓" d="M25.747,4.876c-.333.031-1.988.317-8.119,2.875-3.9,1.628-8.154,3.565-10.7,4.723-1.162.529-1.809.823-2.209,1a3.714,3.714,0,0,0-1.495,2.444,3.578,3.578,0,0,0,.943,2.233c4.959,2.547,17.186,8.588,22,9.943a14.223,14.223,0,0,0,3.2-.917c1.59-.587,3.579-1.433,5.912-2.516C39.535,22.688,43.915,20.4,46.02,19.3c.446-.233.758-.4.985-.513a1.747,1.747,0,0,0,.579-1.14,1.346,1.346,0,0,0-.478-.888c-.33-.2-.845-.507-1.538-.927-2.384-1.442-6.821-4.127-11-6.5C28.093,5.659,26.209,5,25.762,4.877h-.015m.007-3c.043,0,.083,0,.121,0,2.578-.157,21.267,11.445,22.986,12.434,2.229,1.812,2.4,4.747-.114,6.958-1.242.587-19.26,10.4-23.044,9.8-6.118-1.579-23.361-10.49-23.361-10.49s-5.255-4.775.8-9.7C3.962,10.621,22.221,1.874,25.754,1.874Z" transform="translate(103.075 1589.574) rotate(-43)" fill="#252525"/>
    <g id="组_2571" data-name="组 2571" transform="translate(-59.967 -14.434)">
      <path id="椭圆_2037" data-name="椭圆 2037" d="M6.716,3a3.716,3.716,0,1,0,3.716,3.716A3.72,3.72,0,0,0,6.716,3m0-3A6.716,6.716,0,1,1,0,6.716,6.716,6.716,0,0,1,6.716,0Z" transform="translate(186 1592.135)" fill="#fff"/>
    </g>
  </g>
</svg>
