<svg xmlns="http://www.w3.org/2000/svg" width="29.092" height="26.004" viewBox="0 0 29.092 26.004">
  <path id="草稿箱_4_" data-name="草稿箱 (4)" d="M72.135,122.4a1.1,1.1,0,0,1,1.092-1.115H84.864a1.115,1.115,0,0,1,0,2.23H73.228A1.106,1.106,0,0,1,72.135,122.4Zm2.548-3.345h8.728a1.115,1.115,0,0,0,0-2.23H74.684a1.115,1.115,0,0,0,0,2.23Zm18.908,8.529v3.732A6.624,6.624,0,0,1,87.045,138h-16a6.624,6.624,0,0,1-6.546-6.686v-3.732a6.047,6.047,0,0,1,.3-1.882l2.815-8.624a7.281,7.281,0,0,1,6.9-5.08H83.58a7.274,7.274,0,0,1,6.9,5.08l2.815,8.624A6.032,6.032,0,0,1,93.592,127.586Zm-25.861-1.469h6.953a.735.735,0,0,1,.728.744,3.638,3.638,0,1,0,7.275,0,.737.737,0,0,1,.728-.744h6.953l-2.643-8.1a4.365,4.365,0,0,0-4.141-3.049H74.515a4.371,4.371,0,0,0-4.141,3.049l-2.643,8.1Z" transform="translate(-64.5 -112)" fill="#252525"/>
</svg>
