<svg xmlns="http://www.w3.org/2000/svg" width="48.4" height="48.83" viewBox="0 0 48.4 48.83">
  <path id="草稿_1_" data-name="草稿 (1)" d="M101.468,74.988l1.936.022,1.566.042,1,.048.9.064.565.053.829.095a12.589,12.589,0,0,1,7.506,3.146,11.329,11.329,0,0,1,3.322,6.7l.136.891.068.554.057.565.048.592.057.968.051,1.518.026,1.885.009,3.054c0,1.336-.476,2.375-1.813,2.375s-1.682-1.038-1.682-2.375l-.018-3.843-.044-1.929-.044-.931-.062-.814-.077-.739-.062-.475a12.43,12.43,0,0,0-3.3-5.82,7.484,7.484,0,0,0-4.239-1.786l-.818-.11-.818-.084-.889-.066-1.014-.046-1.646-.042-1.527-.015-1.839-.009-6.8.009-2.4.033-1.129.04-.968.053-.858.07-.543.059-.266.033a13.487,13.487,0,0,0-6.132,3.2,6.624,6.624,0,0,0-1.87,3.96l-.121.794-.066.563-.057.594-.044.647-.035.717L78.321,90.5l-.026,2.123,0,1.3,0,12.249.026,2.123.037,1.254.035.719.044.645.088.878.073.554a7.049,7.049,0,0,0,1.954,4.477c.983.931,3.62,2.822,5.58,3.13l.8.108.739.077.792.062,1.214.059,1.478.037,3.531.029h1.289c1.336,0,2.351.452,2.351,1.788s-1.015,1.706-2.351,1.706l-4.127-.018-1.338-.022-1.144-.033-1-.048-.9-.064-.565-.053-.832-.095a12.564,12.564,0,0,1-7.5-3.146,11.3,11.3,0,0,1-3.322-6.694l-.136-.893-.1-.836-.077-.876-.059-.968-.051-1.518-.029-2.431-.007-2.51.007-10.94.022-2,.044-1.6.051-1.012.07-.9.09-.843.075-.557a11.706,11.706,0,0,1,3.423-7.315A12.154,12.154,0,0,1,85.4,75.41l.95-.13,1.122-.114.9-.066.651-.033,1.492-.048,2.358-.031h8.6Zm10.514,26.618a7.06,7.06,0,0,1,6.637.213,7.409,7.409,0,0,1,1.595,1.254l1.219,1.219a7.467,7.467,0,0,1,1.254,1.588c1.261,2.189-.085,3.534-1.339,5.71,0-.019-.841,1.057-.834,1.089l-.312.394-6.141,6.15a8.81,8.81,0,0,1-4.246,2.292l-.284.066-.937.189-1.789.334-.827.165-.834.139q-.23.032-.462.046c-1.013.065-2.541,0-2.881-.343a4.044,4.044,0,0,1-1.091-3.627l.02-.224.07-.515.048-.295.2-1.012.431-2.288.139-.653.185-.686a8.526,8.526,0,0,1,2.143-3.707l5.545-5.54.706-.693.4-.352a6.643,6.643,0,0,1,.979-.693Zm4.741,2.3a3.758,3.758,0,0,0-4.082.764l-.077.048-.2.154-.249.22-7.442,7.431a4.2,4.2,0,0,0-1.027,2.037l-.1.475-.444,2.334-.1.5-.145.856-.018.253s-.493.946.018,1.262,2.025,0,2.025,0l.981-.194.829-.152,1.861-.365.431-.119a14.032,14.032,0,0,0,3-2.269l7.088-7.084.385-.4.257-.3a1.569,1.569,0,0,0,.128-.183c.757-1.737-.442-2.362-.879-3.061l-.132-.172-.211-.233-.3-.315-.854-.851-.332-.315-.242-.207a1.4,1.4,0,0,0-.169-.119ZM105.353,92.863c1.1.053,2.055.5,2.055,1.8s-.955,1.645-2.055,1.693H88.983c-1.1-.048-1.789-.391-1.789-1.693s.689-1.749,1.789-1.8Z" transform="translate(-74.791 -74.988)" fill="#6a0bff"/>
</svg>
