<svg xmlns="http://www.w3.org/2000/svg" width="32.318" height="30.415" viewBox="0 0 32.318 30.415">
  <g id="编辑资料" transform="translate(0)">
    <path id="路径_82" data-name="路径 82" d="M283.417,39.8a.406.406,0,0,0-.055.092l-1.607,5.8a.987.987,0,0,0,.258.962,1.008,1.008,0,0,0,.72.277,1.1,1.1,0,0,0,.259-.037l5.928-1.57h.018a.237.237,0,0,0,.183-.073l15.828-15.4a2.471,2.471,0,0,0,.72-1.754,2.945,2.945,0,0,0-.924-2.105l-1.5-1.459a3.161,3.161,0,0,0-2.161-.9,2.637,2.637,0,0,0-1.81.7l-15.826,15.4c-.019.037-.019.056-.037.073Zm17.4-13.943a.746.746,0,0,1,1,.073l1.5,1.46a.8.8,0,0,1,.24.554.587.587,0,0,1-.167.425l-1.57,1.533-2.549-2.511Zm-3.158,3.066,2.549,2.53-11.394,11.1-2.566-2.493Zm-12.669,12.67,2.2,2.142-3.028.812Zm0,0" transform="translate(-273.352 -22.921)" fill="#2c2c2c"/>
    <path id="路径_83" data-name="路径 83" d="M31.043,11.523a1.088,1.088,0,0,0-1.089,1.072V26.943a1.384,1.384,0,0,1-1.4,1.367H3.582a1.384,1.384,0,0,1-1.4-1.367V3.509a1.384,1.384,0,0,1,1.4-1.367H19.649a1.071,1.071,0,0,0,0-2.142H3.416A3.378,3.378,0,0,0,0,3.324V27.091a3.378,3.378,0,0,0,3.416,3.324h25.3a3.378,3.378,0,0,0,3.416-3.324v-14.5a1.088,1.088,0,0,0-1.09-1.071Zm0,0" transform="translate(0 0)" fill="#2c2c2c"/>
  </g>
</svg>
