<svg xmlns="http://www.w3.org/2000/svg" width="27.845" height="31.193" viewBox="0 0 27.845 31.193">
  <path id="任务动态" d="M88.735,87.567a4.067,4.067,0,1,0-4.663,4.026V104.6a4.067,4.067,0,1,0,1.192,0V91.594A4.079,4.079,0,0,0,88.735,87.567Zm-6.946,0a2.875,2.875,0,1,1,2.875,2.875A2.878,2.878,0,0,1,81.789,87.567Zm5.754,21.059a2.875,2.875,0,1,1-2.875-2.875A2.878,2.878,0,0,1,87.542,108.626Zm3.934-20.463h14.372a.6.6,0,1,0,0-1.192H91.477a.6.6,0,1,0,0,1.192Zm14.372,19.866H91.477a.6.6,0,1,0,0,1.192h14.372a.6.6,0,1,0,0-1.192Zm0-10.529H94.989a.6.6,0,0,0,0,1.192h10.86a.6.6,0,1,0,0-1.192Z" transform="translate(-79.6 -82.5)" stroke="#000" stroke-width="2"/>
</svg>
