<?xml version="1.0" standalone="no"?><!DOCTYPE svg PUBLIC "-//W3C//DTD SVG 1.1//EN" "http://www.w3.org/Graphics/SVG/1.1/DTD/svg11.dtd"><svg t="1715772096218" class="icon" viewBox="0 0 1024 1024" version="1.1" xmlns="http://www.w3.org/2000/svg" p-id="8659" xmlns:xlink="http://www.w3.org/1999/xlink" width="200" height="200"><path d="M938.666667 593.066667v97.706666c0 155.306667-92.586667 247.893333-247.893334 247.893334H333.226667c-108.8 0-187.306667-45.653333-224-126.72l4.693333-3.413334 209.92-140.8c34.133333-23.04 82.346667-20.48 112.64 5.973334l14.506667 11.946666c33.28 28.586667 87.04 28.586667 120.32 0l177.493333-152.32c33.28-28.586667 87.04-28.586667 120.32 0L938.666667 593.066667z" fill="#2c2c2c" p-id="8660"></path><path d="M894.72 341.333333h-125.44C715.093333 341.333333 682.666667 308.906667 682.666667 254.72V129.28c0-17.066667 3.413333-31.573333 9.386666-43.946667H333.226667C177.92 85.333333 85.333333 177.92 85.333333 333.226667v357.546666c0 46.506667 8.106667 87.04 23.893334 121.173334l4.693333-3.413334 209.92-140.8c34.133333-23.04 82.346667-20.48 112.64 5.973334l14.506667 11.946666c33.28 28.586667 87.04 28.586667 120.32 0l177.493333-152.32c33.28-28.586667 87.04-28.586667 120.32 0L938.666667 593.066667V333.226667v-1.28c-12.373333 5.973333-26.88 9.386667-43.946667 9.386666z" fill="#2c2c2c" opacity=".4" p-id="8661"></path><path d="M384 442.88a101.546667 101.546667 0 1 0 0-203.093333 101.546667 101.546667 0 0 0 0 203.093333zM894.72 42.666667h-125.44C715.093333 42.666667 682.666667 75.093333 682.666667 129.28v125.44C682.666667 308.906667 715.093333 341.333333 769.28 341.333333h125.44C948.906667 341.333333 981.333333 308.906667 981.333333 254.72V129.28C981.333333 75.093333 948.906667 42.666667 894.72 42.666667z m40.106667 167.68c-4.266667 4.266667-10.666667 7.253333-17.493334 7.68h-60.16l0.426667 59.306666c-0.426667 7.253333-2.986667 13.226667-8.106667 18.346667-4.266667 4.266667-10.666667 7.253333-17.493333 7.253333-14.08 0-25.6-11.52-25.6-25.6V217.6l-59.733333 0.426667a26.026667 26.026667 0 0 1-25.6-26.026667c0-14.08 11.52-25.6 25.6-25.6l59.733333 0.426667v-59.733334c0-14.08 11.52-26.026667 25.6-26.026666 14.08 0 25.6 11.946667 25.6 26.026666l-0.426667 59.306667h60.16c14.08 0 25.6 11.52 25.6 25.6a29.013333 29.013333 0 0 1-8.106666 18.346667z" fill="#2c2c2c" p-id="8662"></path></svg>