<svg xmlns="http://www.w3.org/2000/svg" width="38.411" height="48.016" viewBox="0 0 38.411 48.016">
  <path id="热门_3_" data-name="热门 (3)" d="M184.891,133.35s-21.293-4.684-11.776-27.931c0,0,2.161,2.583,1.864,3.826,0,0,1.694-5.868,5.349-9.373,3.139-3.012,6.328-11.479,3.387-14.539,0,0,14.569,3.06,16.191,18.365,0,0,1.864-4.877,5.69-5.359a10.469,10.469,0,0,0,0,6.7s12.068,20.659-8.73,27.642c0,0,6.235-7.079-6.987-19.228,0,0-3.117,6.506-4.981,8.8-.005.006-5.206,5.836-.005,11.1Z" transform="translate(-170.666 -85.333)" fill="#333"/>
</svg>
