<?xml version="1.0" standalone="no"?><!DOCTYPE svg PUBLIC "-//W3C//DTD SVG 1.1//EN" "http://www.w3.org/Graphics/SVG/1.1/DTD/svg11.dtd"><svg t="1705908926930" class="icon" viewBox="0 0 1024 1024" version="1.1" xmlns="http://www.w3.org/2000/svg" p-id="79581" xmlns:xlink="http://www.w3.org/1999/xlink" width="200" height="200"><path d="M992 556.8v243.2c0 70.4-57.6 134.4-134.4 134.4H166.4c-70.4 0-134.4-57.6-134.4-134.4v-576c0-70.4 57.6-134.4 134.4-134.4h697.6c70.4 0 134.4 57.6 134.4 134.4v332.8h-6.4z m-70.4-83.2V224c0-32-25.6-57.6-57.6-57.6H166.4c-38.4 0-64 25.6-64 57.6v390.4c12.8 0 32-6.4 44.8-6.4 76.8 0 147.2 25.6 204.8 76.8 57.6-153.6 204.8-256 371.2-256 76.8 0 147.2 19.2 198.4 44.8z m0 96c-6.4-6.4-25.6-25.6-51.2-38.4-38.4-19.2-89.6-32-140.8-32-134.4 0-256 83.2-307.2 211.2 0 6.4-6.4 25.6-12.8 44.8-6.4 25.6-38.4 32-57.6 12.8-19.2-19.2-32-25.6-38.4-32-44.8-38.4-102.4-57.6-160-57.6-19.2 0-32 0-51.2 6.4v115.2c0 32 25.6 57.6 57.6 57.6h697.6c32 0 57.6-25.6 57.6-57.6V569.6h6.4zM294.4 473.6c-57.6 0-108.8-51.2-108.8-108.8S236.8 256 294.4 256s108.8 51.2 108.8 108.8-44.8 108.8-108.8 108.8z m0-70.4c19.2 0 38.4-19.2 38.4-38.4s-19.2-32-38.4-32-32 12.8-32 38.4 12.8 32 32 32z" p-id="79582"></path></svg>