<svg xmlns="http://www.w3.org/2000/svg" width="54.013" height="45.679" viewBox="0 0 54.013 45.679">
  <path id="喜欢_2_" data-name="喜欢 (2)" d="M132.379,295.023a15.27,15.27,0,0,1,10.6,4.256l.029.028,1.04,1.036c.861-.87,1.041-1.041,1.108-1.1a15.336,15.336,0,0,1,25.9,11.124,14.1,14.1,0,0,1-1.394,6.351A23,23,0,0,1,166.747,321l-.065.081-16.695,16.875a7.778,7.778,0,0,1-11.861,0l-.007-.007-16.551-16.724a16.012,16.012,0,0,1-4.522-10.868A15.352,15.352,0,0,1,132.379,295.023Zm7.824,7.133a11.335,11.335,0,0,0-19.159,8.2,12.075,12.075,0,0,0,3.433,8.124l16.479,16.649a3.842,3.842,0,0,0,6.2,0l16.537-16.715c1.886-2.354,3.367-4.244,3.367-8.05a11.336,11.336,0,0,0-19.148-8.221l-.022.02c-.043.04-.363.346-2.4,2.415l-1.412,1.437Z" transform="translate(-117.045 -295.023)"/>
</svg>
