<svg xmlns="http://www.w3.org/2000/svg" width="50.97" height="50.97" viewBox="0 0 50.97 50.97">
  <path id="tuichudenglu" d="M25.485,50.97A25.485,25.485,0,1,1,50.97,25.485,25.485,25.485,0,0,1,25.485,50.97ZM35.679,10.653a2.487,2.487,0,0,0-3.925,2.472A2.345,2.345,0,0,0,32.8,14.756a12.742,12.742,0,0,1,5.428,10.5A12.105,12.105,0,0,1,37.208,30.2a13.15,13.15,0,0,1-2.727,4.078A13.685,13.685,0,0,1,30.4,37.03,12.722,12.722,0,0,1,13.685,30.2a12.513,12.513,0,0,1-.943-4.944,12.742,12.742,0,0,1,1.325-5.76,12.258,12.258,0,0,1,3.772-4.485,2.526,2.526,0,1,0-2.982-4.078,19.063,19.063,0,0,0-3.033,2.88,16.922,16.922,0,0,0-2.268,3.415,18.477,18.477,0,0,0-1.4,3.874A17.712,17.712,0,0,0,12.87,37.871a18.578,18.578,0,0,0,5.683,3.823,17.075,17.075,0,0,0,6.906,1.4,17.228,17.228,0,0,0,6.957-1.4,17.839,17.839,0,0,0,9.48-9.48,17.253,17.253,0,0,0,1.427-6.957A18.349,18.349,0,0,0,42.815,21a17.839,17.839,0,0,0-1.529-3.976,18.885,18.885,0,0,0-2.4-3.491,17.228,17.228,0,0,0-3.211-2.88Zm-10.194,17.2a2.548,2.548,0,0,0,1.809-.739,2.4,2.4,0,0,0,.739-1.631V10.194a2.567,2.567,0,0,0-2.548-2.548A2.345,2.345,0,0,0,23.7,8.41a2.549,2.549,0,0,0-.765,1.784V25.485a2.548,2.548,0,0,0,2.548,2.548Z" fill="#fff"/>
</svg>
