<svg xmlns="http://www.w3.org/2000/svg" width="37.132" height="35.897" viewBox="0 0 37.132 35.897">
  <path id="消息中心_1_" data-name="消息中心 (1)" d="M17.457,58.672c-1.455,0-2.878-.017-4.134-.031-1.01-.012-1.882-.022-2.6-.022H8.38l.37-2.315a16.327,16.327,0,0,1,.368-1.621c.116-.439.227-.859.292-1.26q-.057-.061-.117-.13c-.308-.357-.531-.582-.745-.8a13.512,13.512,0,0,1-2.179-2.885,16.3,16.3,0,0,1-2.43-7.544,17.781,17.781,0,0,1,1.18-7.636,18.317,18.317,0,0,1,4.549-6.718,17.967,17.967,0,0,1,7.492-4.19,19.857,19.857,0,0,1,5.343-.744A18.758,18.758,0,0,1,32.251,25.5,18.554,18.554,0,0,1,38.935,32.5a17.156,17.156,0,0,1,2.088,8.671A17.853,17.853,0,0,1,38,50.472a18.48,18.48,0,0,1-10.885,7.572C25.342,58.478,22.364,58.672,17.457,58.672Zm-4.21-4.032h.121c1.245.014,2.657.031,4.089.031,1.635,0,6.612,0,8.706-.512a14.386,14.386,0,0,0,8.485-5.872A13.241,13.241,0,0,0,35.417,34.4,14.641,14.641,0,0,0,22.5,26.775a15.858,15.858,0,0,0-4.266.6,14.049,14.049,0,0,0-9.391,8.506A12.931,12.931,0,0,0,9.766,47.5a9.824,9.824,0,0,0,1.63,2.188c.235.239.529.536.922.991a1.074,1.074,0,0,0,.141.132,2.73,2.73,0,0,1,.979,2.626A9.9,9.9,0,0,1,13.248,54.639Z" transform="translate(-3.897 -22.775)"/>
</svg>
