<svg xmlns="http://www.w3.org/2000/svg" width="100" height="127.666" viewBox="0 0 100 127.666">
  <g id="组_2536" data-name="组 2536" transform="translate(1775 241.945)">
    <g id="组_2535" data-name="组 2535" transform="translate(-1572 -507)">
      <g id="组_2478" data-name="组 2478" transform="translate(-2996 -18675.279)">
        <g id="椭圆_1949" data-name="椭圆 1949" transform="translate(2793 18968)" fill="none" stroke="#040404" stroke-width="3">
          <circle cx="50" cy="50" r="50" stroke="none"/>
          <circle cx="50" cy="50" r="48.5" fill="none"/>
        </g>
        <g id="组_2477" data-name="组 2477" transform="translate(-631.106 -2333.668)">
          <g id="排除_21" data-name="排除 21" transform="translate(3434 21277.002)" fill="#e600ff">
            <path d="M 40.5531005859375 113.1654052734375 C 35.28031539916992 113.1654052734375 30.16610145568848 112.1330795288086 25.35248565673828 110.0970916748047 C 20.70222282409668 108.1302490234375 16.52556228637695 105.3142013549805 12.93851566314697 101.7272186279297 C 9.351408004760742 98.14015960693359 6.535300731658936 93.96350860595703 4.568423748016357 89.31329345703125 C 2.532377481460571 84.49960327148438 1.500008225440979 79.38524627685547 1.500008225440979 74.11231231689453 C 1.500008225440979 68.83955383300781 2.532377481460571 63.72532653808594 4.568423748016357 58.91169357299805 C 6.535331249237061 54.26147842407227 9.351439476013184 50.08481597900391 12.93853092193604 46.49774169921875 C 16.52556228637695 42.91066360473633 20.70222282409668 40.09455490112305 25.35250091552734 38.12761688232422 C 30.16617774963379 36.09157180786133 35.28039169311523 35.0592041015625 40.5531005859375 35.0592041015625 C 41.13883972167969 35.0592041015625 41.72805786132812 35.07233810424805 42.31560897827148 35.09839630126953 L 42.31560897827148 54.5682258605957 C 41.57753372192383 54.47843170166016 40.83263778686523 54.43320083618164 40.08689880371094 54.43320083618164 C 30.00700759887695 54.43320083618164 21.8064079284668 62.6338005065918 21.8064079284668 72.71369171142578 C 21.8064079284668 82.79409790039062 30.00700759887695 90.99510955810547 40.08689880371094 90.99510955810547 C 50.16680908203125 90.99510955810547 58.36740875244141 82.79409790039062 58.36740875244141 72.71369171142578 L 58.36740875244141 39.34862518310547 C 64.30660247802734 42.39474868774414 69.36544036865234 46.90762329101562 73.09065246582031 52.50614166259766 C 77.35316467285156 58.91209411621094 79.60620880126953 66.38338470458984 79.60620880126953 74.11231231689453 C 79.60620880126953 79.38524627685547 78.57388305664062 84.49960327148438 76.53790283203125 89.31329345703125 C 74.57105255126953 93.96355438232422 71.75502014160156 98.14020538330078 68.16800689697266 101.7272186279297 C 64.58100891113281 105.3142166137695 60.40436172485352 108.1302490234375 55.75410079956055 110.0970916748047 C 50.94043731689453 112.1330795288086 45.82608413696289 113.1654052734375 40.5531005859375 113.1654052734375 Z M 55.36740875244141 34.74305725097656 C 52.13158416748047 33.52437591552734 48.76405334472656 32.71437835693359 45.31560897827148 32.32592391967773 L 45.31560897827148 1.498202323913574 L 49.86719131469727 1.498202323913574 C 52.9000244140625 1.498202323913574 55.36740875244141 3.96558690071106 55.36740875244141 6.99840259552002 L 55.36740875244141 34.74305725097656 Z" stroke="none"/>
            <path d="M 40.5531005859375 111.6654052734375 C 45.62426376342773 111.6654052734375 50.54201126098633 110.6729507446289 55.16979217529297 108.7155685424805 C 59.6412467956543 106.8243637084961 63.65762710571289 104.1162948608398 67.10733795166016 100.6665496826172 C 70.55709838867188 97.21680450439453 73.26519012451172 93.20042419433594 75.15639495849609 88.72898101806641 C 77.11375427246094 84.10118103027344 78.10620880126953 79.18341827392578 78.10620880126953 74.11231231689453 C 78.10620880126953 66.68002319335938 75.94002532958984 59.49607467651367 71.84184265136719 53.33707427978516 C 68.72505187988281 48.65295028686523 64.63805389404297 44.75924682617188 59.86740875244141 41.89706039428711 L 59.86740875244141 72.71369171142578 C 59.86740875244141 83.62120056152344 50.99391937255859 92.49510955810547 40.08689880371094 92.49510955810547 C 29.17990112304688 92.49510955810547 20.30640983581543 83.62120056152344 20.30640983581543 72.71369171142578 C 20.30640983581543 61.80669403076172 29.17990112304688 52.93320083618164 40.08689880371094 52.93320083618164 C 40.32990264892578 52.93320083618164 40.57291793823242 52.93764877319336 40.81560897827148 52.94651794433594 L 40.81560897827148 36.56011581420898 C 40.72805404663086 36.55950546264648 40.64051818847656 36.5592041015625 40.5531005859375 36.5592041015625 C 35.48224639892578 36.5592041015625 30.56462860107422 37.55169296264648 25.93682861328125 39.50911331176758 C 21.46537399291992 41.40042114257812 17.44897270202637 44.10858535766602 13.99919128417969 47.55840301513672 C 10.549391746521 51.00820159912109 7.841209888458252 55.02460098266602 5.949918746948242 59.49604034423828 C 3.99250054359436 64.12378692626953 3.000009775161743 69.04140472412109 3.000009775161743 74.11231231689453 C 3.000009775161743 79.18340301513672 3.99250054359436 84.10115051269531 5.949936866760254 88.72896575927734 C 7.841209888458252 93.20042419433594 10.54937362670898 97.21680450439453 13.99919128417969 100.6665496826172 C 17.44895553588867 104.1162719726562 21.4653377532959 106.8243637084961 25.93680953979492 108.7155838012695 C 30.56451797485352 110.6729507446289 35.48215484619141 111.6654052734375 40.5531005859375 111.6654052734375 M 53.86740875244141 32.63224029541016 L 53.86740875244141 6.99840259552002 C 53.86740875244141 4.792693138122559 52.07291793823242 2.998202323913574 49.86719131469727 2.998202323913574 L 46.81560897827148 2.998202323913574 L 46.81560897827148 31.00619316101074 C 49.21277236938477 31.35124397277832 51.56869888305664 31.89461708068848 53.86740875244141 32.63224029541016 M 40.5531005859375 114.6654052734375 C 35.07851791381836 114.6654052734375 29.7676830291748 113.5932235717773 24.76815605163574 111.4785995483398 C 19.93913650512695 109.436149597168 15.60221004486084 106.5121688842773 11.87788200378418 102.7878723144531 C 8.153500556945801 99.06358337402344 5.229445934295654 94.72667694091797 3.18691873550415 89.89762115478516 C 1.072227835655212 84.89800262451172 9.676846275397111e-06 79.58705902099609 9.676846275397111e-06 74.11231231689453 C 9.676846275397111e-06 68.63774871826172 1.072227835655212 63.32693099975586 3.18691873550415 58.32736587524414 C 5.229464054107666 53.49832916259766 8.153518676757812 49.16141891479492 11.87788200378418 45.43707656860352 C 15.60221004486084 41.71271133422852 19.93913650512695 38.78865814208984 24.76815605163574 36.74611282348633 C 29.76773643493652 34.63143920898438 35.07853698730469 33.5592041015625 40.5531005859375 33.5592041015625 C 41.63933563232422 33.5592041015625 42.73699188232422 33.60271072387695 43.81560897827148 33.68852996826172 L 43.81560897827148 56.34900283813477 C 42.60015487670898 56.07344055175781 41.34604644775391 55.93320083618164 40.08689880371094 55.93320083618164 C 30.8341007232666 55.93320083618164 23.30640983581543 63.46091079711914 23.30640983581543 72.71369171142578 C 23.30640983581543 81.96700286865234 30.8341007232666 89.49510955810547 40.08689880371094 89.49510955810547 C 49.33969879150391 89.49510955810547 56.86740875244141 81.96700286865234 56.86740875244141 72.71369171142578 L 56.86540985107422 36.97347640991211 C 52.72792053222656 35.1538200378418 48.33713531494141 34.04831314086914 43.81560897827148 33.68852996826172 L 43.81560897827148 -0.001797631848603487 L 49.86719131469727 -0.001797631848603487 C 53.72713851928711 -0.001797631848603487 56.86740875244141 3.138475179672241 56.86740875244141 6.99840259552002 L 56.86740875244141 36.974365234375 C 63.98175430297852 40.10436630249023 70.02302551269531 45.18814849853516 74.33946228027344 51.6751823425293 C 78.76630401611328 58.32809448242188 81.10620880126953 66.08673095703125 81.10620880126953 74.11231231689453 C 81.10620880126953 79.58711242675781 80.03401184082031 84.89805603027344 77.91941070556641 89.89762115478516 C 75.876953125 94.72667694091797 72.95295715332031 99.06358337402344 69.22866058349609 102.7878723144531 C 65.50439453125 106.5121688842773 61.16748428344727 109.436149597168 56.33840942382812 111.4785995483398 C 51.33884429931641 113.5932235717773 46.02790069580078 114.6654052734375 40.5531005859375 114.6654052734375 Z" stroke="none" fill="#040404"/>
          </g>
          <g id="矩形_4864" data-name="矩形 4864" transform="translate(3460.144 21274.002)" fill="#e600ff" stroke="#040404" stroke-width="3">
            <path d="M0,0H19.51a1,1,0,0,1,1,1V14.918a0,0,0,0,1,0,0H0a0,0,0,0,1,0,0V0A0,0,0,0,1,0,0Z" stroke="none"/>
            <path d="M1.5,1.5H18.51a.5.5,0,0,1,.5.5V13.418a0,0,0,0,1,0,0H1.5a0,0,0,0,1,0,0V1.5A0,0,0,0,1,1.5,1.5Z" fill="none"/>
          </g>
        </g>
        <g id="路径_1380" data-name="路径 1380" transform="translate(2862.618 19018.666) rotate(31)" fill="#fff">
          <path d="M 18.31598091125488 9.418506622314453 C 15.92381191253662 9.155105590820312 5.090684413909912 5.727675914764404 0.6064786314964294 4.26218318939209 C 0.4342392981052399 3.383519887924194 -0.1325251907110214 0.6104874610900879 -1.087375998497009 -2.944194078445435 C 4.2333664894104 -6.248810291290283 11.87955951690674 -10.9473352432251 13.68956756591797 -11.93338584899902 C 14.7306432723999 -9.861231803894043 16.12964248657227 -6.814891338348389 17.12903594970703 -3.100793838500977 C 18.24453544616699 1.04478931427002 18.64341163635254 5.254257202148438 18.31598091125488 9.418506622314453 Z" stroke="none"/>
          <path d="M 13.47573852539062 -11.23996734619141 C 11.13583850860596 -9.900440216064453 4.251232147216797 -5.669186592102051 -0.5086135864257812 -2.714978218078613 C 0.3162403106689453 0.3924140930175781 0.827484130859375 2.812891960144043 1.040477752685547 3.87739086151123 C 2.294406890869141 4.284894943237305 5.48615837097168 5.31528377532959 8.81363582611084 6.334866523742676 C 14.37363624572754 8.038534164428711 16.79902458190918 8.638778686523438 17.85612487792969 8.839777946472168 C 18.40481948852539 0.25758957862854 15.76559066772461 -6.584463119506836 13.47573852539062 -11.23996734619141 M 13.91071319580078 -12.58992481231689 C 13.91577243804932 -12.58992481231689 13.91869163513184 -12.58860301971436 13.91951560974121 -12.58590412139893 C 16.39055633544922 -7.745303630828857 19.67571449279785 0.02397608757019043 18.77657508850098 9.904146194458008 C 17.72155380249023 10.40132713317871 0.1710853576660156 4.645766258239746 0.1710853576660156 4.645766258239746 C 0.1710853576660156 4.645766258239746 -0.4369754791259766 1.349446058273315 -1.667083740234375 -3.172673940658569 C -1.667083740234375 -3.172673940658569 13.48624897003174 -12.58992481231689 13.91071319580078 -12.58992481231689 Z" stroke="none" fill="#e600ff"/>
        </g>
        <g id="路径_1382" data-name="路径 1382" transform="translate(2825.569 19016.436) rotate(-163)" fill="#fff">
          <path d="M 15.22203922271729 21.81847190856934 C 13.56364059448242 20.8906078338623 6.819035530090332 16.61604690551758 2.082164525985718 13.57944679260254 C 3.704173564910889 10.12483692169189 3.827090501785278 7.023774147033691 3.815109968185425 5.969680309295654 C 9.291756629943848 3.916505813598633 17.48971366882324 1.01710307598114 19.51764678955078 0.7397536039352417 C 19.85702133178711 4.986415863037109 19.52068519592285 9.195524215698242 18.51680755615234 13.25844478607178 C 17.58126068115234 17.04485130310059 16.24896812438965 19.94913291931152 15.22203922271729 21.81847190856934 Z" stroke="none"/>
          <path d="M 15.02594661712646 21.1278247833252 C 15.99815940856934 19.28391456604004 17.18054580688477 16.5821475982666 18.03140830993652 13.13851547241211 C 18.97841262817383 9.305740356445312 19.32354927062988 5.340332984924316 19.05983924865723 1.336629152297974 C 18.08579635620117 1.557183384895325 15.91147327423096 2.174551248550415 11.08875846862793 3.865575075149536 C 8.249190330505371 4.861236095428467 5.525237083435059 5.867020130157471 4.313024520874023 6.318102359771729 C 4.289925575256348 7.599140644073486 4.062088489532471 10.33971786499023 2.71664023399353 13.39213752746582 C 6.93147087097168 16.09151077270508 12.90415477752686 19.8770751953125 15.02594661712646 21.1278247833252 M 15.42357540130615 22.46994972229004 C 15.01167678833008 22.46936416625977 1.438647985458374 13.76073551177979 1.438647985458374 13.76073551177979 C 3.572668075561523 9.495354652404785 3.303637981414795 5.627665042877197 3.303637981414795 5.627665042877197 C 3.303637981414795 5.627664566040039 18.92243957519531 -0.2490749061107635 19.97744750976562 0.2481250762939453 C 20.87655830383301 10.12830543518066 17.99258804321289 17.97612571716309 15.43283843994141 22.46561431884766 C 15.43195056915283 22.46852493286133 15.42887210845947 22.46995735168457 15.42357540130615 22.46994972229004 Z" stroke="none" fill="#e600ff"/>
        </g>
        <g id="路径_1381" data-name="路径 1381" transform="matrix(0.719, -0.695, 0.695, 0.719, 2855.186, 19028.561)" fill="#fff">
          <path d="M 3.146593332290649 18.70559692382812 C 3.269870281219482 17.38979339599609 3.641945600509644 13.30432510375977 4.803554534912109 0.4548531770706177 C 5.283477306365967 0.3855080902576447 6.178854942321777 0.2183192372322083 7.614629745483398 -0.1833357661962509 C 7.458039283752441 2.509771585464478 6.832894325256348 12.52242851257324 6.464516162872314 18.39005279541016 C 5.866243362426758 18.4791088104248 4.628572940826416 18.64053726196289 3.146593332290649 18.70559692382812 Z" stroke="none"/>
          <path d="M 7.074487686157227 0.480712890625 C 6.28525447845459 0.6862220764160156 5.692625999450684 0.8110103607177734 5.266553401947021 0.8867282867431641 C 4.269451141357422 11.91642093658447 3.866461753845215 16.36149024963379 3.697954177856445 18.17558288574219 C 4.637285709381104 18.11702346801758 5.442122459411621 18.02521896362305 5.991034984588623 17.9518871307373 C 6.286657810211182 13.24014663696289 6.86624813079834 3.964201927185059 7.074487686157227 0.480712890625 M 8.150620460510254 -0.8582916259765625 C 8.173100471496582 -0.8365802764892578 6.938450813293457 18.82087898254395 6.938450813293457 18.82087898254395 C 6.938450813293457 18.82087898254395 5.019290447235107 19.16412925720215 2.596720695495605 19.22488975524902 C 2.609310150146484 19.17459869384766 4.34229040145874 0.0037994384765625 4.34229040145874 0.0037994384765625 C 4.34229040145874 0.0037994384765625 5.380310535430908 -0.03642082214355469 8.150620460510254 -0.8582916259765625 Z" stroke="none" fill="#e600ff"/>
        </g>
        <g id="路径_1383" data-name="路径 1383" transform="translate(2805.376 19012.324) rotate(-88)" fill="#fff">
          <path d="M 5.013839721679688 17.76119422912598 C 3.647090435028076 17.40213966369629 2.760465145111084 17.32029342651367 2.236624717712402 17.32029342651367 C 2.234668016433716 17.32029342651367 2.232714891433716 17.3202953338623 2.230768918991089 17.32029724121094 C 1.764980316162109 12.11028480529785 0.985066831111908 3.355786085128784 0.7937068939208984 1.10224723815918 C 2.220468997955322 1.157855272293091 3.338063955307007 1.277294516563416 3.898245811462402 1.346678018569946 C 4.254964351654053 6.523097515106201 4.854282855987549 15.26901435852051 5.013839721679688 17.76119422912598 Z" stroke="none"/>
          <path d="M 4.470622062683105 17.1142749786377 C 4.279050350189209 14.20051097869873 3.79649806022644 7.145530700683594 3.427968978881836 1.795211553573608 C 2.92565655708313 1.740294337272644 2.207110166549683 1.6739262342453 1.340699553489685 1.627920150756836 C 1.593857884407043 4.553934097290039 2.310372114181519 12.59361743927002 2.689555883407593 16.83688926696777 C 3.13063645362854 16.86737060546875 3.716488599777222 16.94532585144043 4.470622062683105 17.1142749786377 M 5.553414821624756 18.43153381347656 C 2.783104181289673 17.60965538024902 1.776534914970398 17.85439300537109 1.776534676551819 17.85439300537109 C 1.776534676551819 17.85439300537109 0.2375947237014771 0.6476237773895264 0.2510247230529785 0.5846138000488281 C 2.673584699630737 0.6453838348388672 4.369014739990234 0.9053338170051575 4.369014739990234 0.9053338170051575 C 4.369014739990234 0.9053338170051575 5.575894832611084 18.40982437133789 5.553414821624756 18.43153381347656 Z" stroke="none" fill="#e600ff"/>
        </g>
        <path id="路径_1384" data-name="路径 1384" d="M0,.277H11l.158,8.979H0Z" transform="translate(2842 18943)" fill="#e600ff"/>
      </g>
    </g>
  </g>
</svg>
