<svg xmlns="http://www.w3.org/2000/svg" width="24.847" height="24.088" viewBox="0 0 24.847 24.088">
  <g id="剪刀" transform="translate(-181.552 -183.842)">
    <path id="路径_1761" data-name="路径 1761" d="M187.042,392.8l-5.172-2.758a.583.583,0,0,1,.458-1.067l7.431,2.467Zm7.321,3.9,5.3-1.976,3.3,1.095h0a5.1,5.1,0,1,1-6.041,2.24Zm6.945,1.762a2.185,2.185,0,1,0,2.185,2.185A2.185,2.185,0,0,0,201.308,398.463Z" transform="translate(-0.009 -197.817)" fill="#656565"/>
    <path id="路径_1762" data-name="路径 1762" d="M201.3,191.125a2.185,2.185,0,1,0-2.185-2.185A2.185,2.185,0,0,0,201.3,191.125Zm-4.395.4a5.1,5.1,0,1,1,6.041,2.24h0l-20.629,6.848a.583.583,0,0,1-.458-1.067l15.043-8.023Z" transform="translate(0 0)" fill="#656565"/>
  </g>
</svg>
