<svg xmlns="http://www.w3.org/2000/svg" width="92.445" height="73.721" viewBox="0 0 92.445 73.721">
  <g id="小说" transform="translate(-90.125 -90.125)">
    <path id="路径_1688" data-name="路径 1688" d="M191.89,153.35l24.529,10.5a5.984,5.984,0,0,0,4.335-1.883,6.59,6.59,0,0,0,1.793-4.548V113.478c0-12.9-9.969-23.356-22.264-23.353h-7.847a5.856,5.856,0,0,0-5.71,5.989v49.239a8.732,8.732,0,0,0,5.164,8Zm65.818,0-24.529,10.5a5.984,5.984,0,0,1-4.335-1.883,6.589,6.589,0,0,1-1.793-4.548V113.478c0-12.9,9.969-23.356,22.264-23.353h7.847a5.856,5.856,0,0,1,5.71,5.989v49.239a8.736,8.736,0,0,1-5.165,8Zm0,0" transform="translate(-88.215)" fill="#6d6d6d"/>
    <path id="路径_1689" data-name="路径 1689" d="M180.529,210.246l-2.073-2.131-.814-.709v44.651a11.507,11.507,0,0,1-6.87,10.666l-4.677,2a11.148,11.148,0,0,0,3.936.542l7.177-.626c3.111-.744,5.362-4.059,5.362-7.927V215.542a7.776,7.776,0,0,0-2.041-5.29Zm-78.137,52.465a11.479,11.479,0,0,1-6.871-10.666V206.967l-1.313,1.148-2.073,2.131a7.592,7.592,0,0,0-2.009,5.273v41.157c0,3.872,2.252,7.185,5.362,7.928l7.178.625a11.136,11.136,0,0,0,4.212-.625Zm0,0" transform="translate(0 -106.699)" fill="#6d6d6d"/>
  </g>
</svg>
