<svg id="_025-compact-disc-2" data-name="025-compact-disc-2" xmlns="http://www.w3.org/2000/svg" width="25.035" height="25.035" viewBox="0 0 25.035 25.035">
  <path id="路径_1759" data-name="路径 1759" d="M23.128,5.879a12.516,12.516,0,1,0-3.972,17.249A12.516,12.516,0,0,0,23.128,5.879ZM4.766,20.187A5.666,5.666,0,0,1,3.2,18.406a6.482,6.482,0,0,1-.966-2.273l6.477-2.448a2.43,2.43,0,0,0,.249,1.131,2.272,2.272,0,0,0,.9.7L4.766,20.187Zm9.042-5.61a2.429,2.429,0,1,1,.771-3.348,2.429,2.429,0,0,1-.771,3.348Zm3-3.059a2.424,2.424,0,0,0-.251-1.133,2.267,2.267,0,0,0-.895-.7l5.086-4.67A5.617,5.617,0,0,1,22.317,6.8a6.492,6.492,0,0,1,.964,2.273l-6.475,2.451Z" transform="translate(0 0)" fill="#333"/>
  <path id="路径_1760" data-name="路径 1760" d="M478.022,477.992m-.851,0a.851.851,0,1,0,.851-.851A.851.851,0,0,0,477.171,477.992Z" transform="translate(-465.505 -465.475)" fill="#333"/>
</svg>
