<svg xmlns="http://www.w3.org/2000/svg" width="39.772" height="39.919" viewBox="0 0 39.772 39.919">
  <path id="个性设置" d="M126.415,122.508l-6.763-6.863a1.411,1.411,0,1,0-2,2l6.763,6.863a1.4,1.4,0,0,0,.978.4,1.317,1.317,0,0,0,.978-.4,1.377,1.377,0,0,0,0-2Zm0,0M124.3,103.714c-2-2.195-5.327-5.726-6.325-6.783-.259-1.436-1.1-6.225-1.676-9.178a3.412,3.412,0,0,0-1.756-2.434,3.372,3.372,0,0,0-2.933,0c-2.733,1.277-7.143,3.452-8.439,4.09-1.456-.18-6.464-.778-9.4-1.077a3.212,3.212,0,0,0-2.554.918,3.392,3.392,0,0,0-.958,2.733c.3,2.993.918,7.981,1.117,9.437-.638,1.317-2.793,5.886-3.99,8.639a3.252,3.252,0,0,0,0,2.973,3.092,3.092,0,0,0,2.155,1.6c2.873.559,7.981,1.436,9.4,1.7.978,1.057,4.569,4.589,6.744,6.584A3.432,3.432,0,0,0,108,123.925h.4a3.272,3.272,0,0,0,2.294-1.776c1.476-2.634,3.89-7.162,4.589-8.479,1.277-.738,5.586-3.212,8.16-4.728a3.452,3.452,0,0,0,1.875-2.434,3.352,3.352,0,0,0-1.018-2.793Zm-23.682,3.232a1.4,1.4,0,0,1-2,0l-1.018-1.018a1.417,1.417,0,0,1,0-2,1.4,1.4,0,0,1,2,0l1.018,1a1.4,1.4,0,0,1,0,2.015Zm5.108-11.093a1.417,1.417,0,0,1,2,0l1,1.018a1.377,1.377,0,0,1,0,2,1.357,1.357,0,0,1-2,0l-1.018-1.018a1.377,1.377,0,0,1,.02-1.935Zm3.99,11.332a4.768,4.768,0,0,1-3.392,1.337,4.869,4.869,0,0,1-1.018-.1,1.417,1.417,0,0,1-1.037-1.676,1.377,1.377,0,0,1,1.656-1.037,1.909,1.909,0,0,0,2.314-2.334,1.4,1.4,0,0,1,1.057-1.656,1.377,1.377,0,0,1,1.656,1.057,5.008,5.008,0,0,1-1.317,4.469Z" transform="translate(-87.031 -84.983)" fill="#f161d9"/>
</svg>
