<svg xmlns="http://www.w3.org/2000/svg" width="134.785" height="116" viewBox="0 0 134.785 116">
  <g id="组_2539" data-name="组 2539" transform="translate(-323 -944)">
    <g id="椭圆_1940" data-name="椭圆 1940" transform="translate(323 944)" fill="none" stroke="#6d0101" stroke-width="3">
      <circle cx="58" cy="58" r="58" stroke="none"/>
      <circle cx="58" cy="58" r="56.5" fill="none"/>
    </g>
    <g id="组_2538" data-name="组 2538">
      <g id="椭圆_1943" data-name="椭圆 1943" transform="translate(328 949)" fill="none" stroke="#6d0101" stroke-width="1">
        <circle cx="53.5" cy="53.5" r="53.5" stroke="none"/>
        <circle cx="53.5" cy="53.5" r="53" fill="none"/>
      </g>
    </g>
    <g id="组_2473" data-name="组 2473" transform="translate(13373.162 20900.092)">
      <circle id="椭圆_1789" data-name="椭圆 1789" cx="39.507" cy="39.507" r="39.507" transform="translate(-13032 -19937.268)" fill="#6d0101"/>
      <g id="椭圆_1786" data-name="椭圆 1786" transform="translate(-13010.353 -19914.537)" fill="#6d0101" stroke="#fff" stroke-width="1">
        <circle cx="17.318" cy="17.318" r="17.318" stroke="none"/>
        <circle cx="17.318" cy="17.318" r="16.818" fill="none"/>
      </g>
      <path id="排除_8" data-name="排除 8" d="M10.824,21.648A10.824,10.824,0,1,1,21.648,10.824,10.836,10.836,0,0,1,10.824,21.648ZM11.6,7.731A3.866,3.866,0,1,0,15.463,11.6,3.87,3.87,0,0,0,11.6,7.731Z" transform="translate(-13003.858 -19906.961)" fill="#fff"/>
      <path id="路径_1184" data-name="路径 1184" d="M24.343,14.148s-4.72,5.8-3.976,12.2c-.491-.066-1.293-4.4-1.293-4.4l-1.49,2.094s.135-3.819.1-3.836c-.057-.029-2.4,2.862-2.4,2.862s2.577-4.461,1.508-3.958-3.017,3.52-3.268,3.52,1.257-3.456,1.257-4.148S10.95,21.75,10.95,21.75s2.64-4.146,2.2-4.524-3.9,3.959-3.9,3.959,1.692-5.317,1.6-5.171S6.8,21.185,6.8,21.185s-.07-.024.009-.015,2.443-4.51,2.443-4.51L5.986,18.8,7.18,16.283s-3.386,1.645-3.4,1.644,2.456-4.091,2.473-4.164-4,3.463-4.025,3.463,1.848-3.644,1.515-3.88C3.528,13.193.719,16.436.719,16.436s-.9,1.437-.684.42C.549,12.614,4.994,3.635,8.113.6a5.773,5.773,0,0,1,.6-.6L8.506,4.839l3.263-2.79-1.5,3.883,4.517-2.873L12.418,8.278,16.364,4.12,15.286,8.94l2.866-2.98L16.364,9.678s2.9-2.268,2.942-2.38-2.2,4.36-2.127,4.4,3.133-2.9,3.188-2.756S18.9,12.5,18.9,12.5s2.714-1.859,2.7-1.766-.986,2.7-1.023,2.735S23.1,11.984,23.1,11.984l-.869,2.552Z" transform="translate(-13025.864 -19929.406) rotate(10)" fill="#fff"/>
      <path id="路径_1185" data-name="路径 1185" d="M24.042,12.716S19.264,6.247,19.745,0c-.307.041-.436,2.587-.808,2.92-.209.176-.975-2.152-.975-2.152s-.292,4.839-.335,4.861c-.057.029-2.4-2.862-2.4-2.862s2.577,4.461,1.508,3.958-3.017-3.52-3.268-3.52,1.257,3.456,1.257,4.148-2.48-4.717-2.48-4.717l.846,5.974L9.988,5.3s1.931,4.913,1.838,4.767S6.745,4.651,6.745,4.651s-.07.024.009.015,2.529,5,2.529,5L5.928,7.039,7.5,10.09S3.736,7.908,3.724,7.909s3.36,4.953,3.377,5.026S2.195,8.61,2.172,8.61,4.058,12.4,3.724,12.634.1,9.67.1,9.67-.052,9.6.019,9.838C.212,10.509,3.267,20.391,8,25.459c1.791,1.763.974-3.153.974-3.153l2.736,1.481-.972-3.477,3.986,2.468L12.6,17.794l3.707,3.922L15.229,16.9l2.866,2.98-1.789-3.718s2.9,2.268,2.942,2.38-2.789-5.169-2.715-5.205,3.722,3.707,3.776,3.563-1.47-3.563-1.47-3.563,2.714,1.859,2.7,1.766-.986-2.7-1.023-2.733,2.529,1.487,2.529,1.487l-.985-1.827Z" transform="translate(-12977.541 -19862.949) rotate(-115)" fill="#fff"/>
    </g>
    <g id="组_2475" data-name="组 2475">
      <g id="矩形_4848" data-name="矩形 4848" transform="translate(443.785 949)" fill="#fff" stroke="#6d0101" stroke-width="1">
        <rect width="14" height="21" rx="5" stroke="none"/>
        <rect x="0.5" y="0.5" width="13" height="20" rx="4.5" fill="none"/>
      </g>
      <g id="矩形_4849" data-name="矩形 4849" transform="translate(448.785 961)" fill="#fff" stroke="#6d0101" stroke-width="1">
        <rect width="4" height="63" rx="2" stroke="none"/>
        <rect x="0.5" y="0.5" width="3" height="62" rx="1.5" fill="none"/>
      </g>
      <g id="矩形_4850" data-name="矩形 4850" transform="matrix(0.259, 0.966, -0.966, 0.259, 451.75, 1019.516)" fill="#fff" stroke="#6d0101" stroke-width="1">
        <rect width="4" height="43" rx="2" stroke="none"/>
        <rect x="0.5" y="0.5" width="3" height="42" rx="1.5" fill="none"/>
      </g>
      <g id="椭圆_1944" data-name="椭圆 1944" transform="translate(444.785 976)" fill="#fff" stroke="#6d0101" stroke-width="1">
        <circle cx="5.5" cy="5.5" r="5.5" stroke="none"/>
        <circle cx="5.5" cy="5.5" r="5" fill="none"/>
      </g>
      <g id="矩形_4851" data-name="矩形 4851" transform="translate(409 1024)" fill="#fff" stroke="#6d0101" stroke-width="1">
        <rect width="6" height="14" rx="3" stroke="none"/>
        <rect x="0.5" y="0.5" width="5" height="13" rx="2.5" fill="none"/>
      </g>
      <g id="矩形_4852" data-name="矩形 4852" transform="translate(405.5 1032.5) rotate(-90)" fill="#fff" stroke="#6d0101" stroke-width="1">
        <rect width="3" height="6" rx="1.5" stroke="none"/>
        <rect x="0.5" y="0.5" width="2" height="5" rx="1" fill="none"/>
      </g>
    </g>
  </g>
</svg>
