<svg xmlns="http://www.w3.org/2000/svg" width="58.222" height="58.317" viewBox="0 0 58.222 58.317">
  <path id="藏头诗_1_" data-name="藏头诗 (1)" d="M110.426,104.183s20.642-31.7,38.6-35.35c-20.937,10.207-44.883,51.751-44.883,51.751H127.48a1.777,1.777,0,0,0-1.791-1.458H107.132a104.161,104.161,0,0,1,6.594-8.381c11.97-.729,22.44-2.183,29.624-14.576,1.2-2.915-.9-2.551-1.5-2.551C147.521,90.7,159.8,79.769,158,74.3c-.9-1.09-1.5-.364-1.5-.364s9.277-7.288,4.48-10.567-16.759,1.822-16.759,1.822.9-2.183-1.794-2.183a30.772,30.772,0,0,0-17.647,9.474s0-2.915-1.5-1.822c-20.646,15.669-12.865,33.524-12.865,33.524Z" transform="translate(-104.141 -62.268)" fill="#595757"/>
</svg>
