<svg xmlns="http://www.w3.org/2000/svg" width="44.533" height="54.81" viewBox="0 0 44.533 54.81">
  <g id="隐私" transform="translate(-142.222 -56.889)">
    <path id="路径_2027" data-name="路径 2027" d="M426.667,303.805a5.138,5.138,0,1,0,5.138-5.138A5.138,5.138,0,0,0,426.667,303.805Z" transform="translate(-267.317 -227.219)" fill="#272727"/>
    <path id="路径_2028" data-name="路径 2028" d="M179.9,56.889h-30.83a6.851,6.851,0,0,0-6.851,6.851v41.107a6.851,6.851,0,0,0,6.851,6.851H171.34a15.415,15.415,0,0,0,15.415-15.415V63.74A6.851,6.851,0,0,0,179.9,56.889Zm-8.564,33.4a2.569,2.569,0,0,1,0,5.138h-4.282v4.282a2.569,2.569,0,1,1-5.138,0V86.52a10.277,10.277,0,1,1,5.138,0v3.768Z" transform="translate(0 0)" fill="#272727"/>
  </g>
</svg>
