<svg xmlns="http://www.w3.org/2000/svg" width="46.319" height="52.301" viewBox="0 0 46.319 52.301">
  <path id="yinsizhengce" d="M123.443,28.364,106.614,23.65a6.4,6.4,0,0,0-3.371,0L86.47,28.364a6.217,6.217,0,0,0-4.55,6V52.511A15.9,15.9,0,0,0,86.908,64.1l.932.877.439.411.9.822.877.795.877.74.85.713.822.658c.987.85,2,1.617,3.042,2.384l.713.493c3.508,2.494,6.413,3.727,8.716,3.727S110.26,74.464,113.8,72l.713-.493c1.042-.795,2.056-1.535,3.042-2.384l.822-.658.85-.713.877-.74.877-.795.9-.822.932-.877.439-.411a16.032,16.032,0,0,0,4.988-11.594V34.367a6.8,6.8,0,0,0-4.8-6ZM106.861,47.687v7.619a1.868,1.868,0,0,1-3.727.164V47.742a4.2,4.2,0,0,1-1.973-5.619,4.065,4.065,0,0,1,3.782-2.384,4.21,4.21,0,0,1,1.919,7.948Z" transform="translate(-81.92 -23.424)" fill="#272727"/>
</svg>
