<svg id="快慢速-打开" xmlns="http://www.w3.org/2000/svg" width="34.416" height="33.128" viewBox="0 0 34.416 33.128">
  <path id="路径_1303" data-name="路径 1303" d="M439.446,433.038a2.571,2.571,0,0,1-2.306-1.434l-.007-.015-.007-.014a3.056,3.056,0,0,1,.948-3.935A13.367,13.367,0,0,1,441,426.627l.027-.006,1.176-.32c.894-.228,1.855-.458,2.856-.688l.942-.222.376-.083a.365.365,0,0,1,.378.147.415.415,0,0,1-.014.442l-.067.093-.013.031-.026.028-.084.09-.024.027-.628.786c-.634.775-1.29,1.573-1.921,2.325l-.292.342-.018.024a19.014,19.014,0,0,1-2.9,3.029,2.569,2.569,0,0,1-1.322.368Z" transform="translate(-422.285 -411.917)" fill="#432020"/>
  <path id="路径_1304" data-name="路径 1304" d="M54.874,50.4A17.1,17.1,0,0,0,42.755,45.41H42.6A17.055,17.055,0,0,0,30.568,74.55a1.541,1.541,0,0,0,2.09.093,16.9,16.9,0,0,0,1.848-1.561,1.5,1.5,0,0,0-2.123-2.114l-.478.48a14.048,14.048,0,0,1-2.971-6.085l1,0a1.494,1.494,0,0,0-.006-2.987h-1.3a14.055,14.055,0,0,1,3.039-8.63l.683.681A1.5,1.5,0,0,0,34.463,52.3l-.7-.7a14.061,14.061,0,0,1,7.475-3.156l0,1.837a1.493,1.493,0,1,0,2.987-.006l0-1.836a14.066,14.066,0,0,1,7.48,3.131l-.7.7a1.5,1.5,0,0,0,2.123,2.113l.675-.675a14.053,14.053,0,0,1,3.068,8.615l-1.289,0a1.494,1.494,0,0,0,.006,2.987l.989,0a14.047,14.047,0,0,1-2.944,6.09l-.475-.473a1.5,1.5,0,0,0-2.113,2.123,19.033,19.033,0,0,0,2.342,1.981,1.54,1.54,0,0,0,1.527-.475A16.925,16.925,0,0,0,54.874,50.4Z" transform="translate(-25.547 -45.41)" fill="#432020"/>
  <path id="路径_1305" data-name="路径 1305" d="M355.344,817.768q-2.74-.132-2.9-3.036a2.91,2.91,0,1,1,5.807,0Q358.049,817.636,355.344,817.768Zm0-1.089q1.517-.066,1.617-1.947-.132-1.848-1.617-1.947-1.519.1-1.585,1.947.067,1.881,1.585,1.948Zm3.366.462v-4.817a.588.588,0,0,1,.627-.66.91.91,0,0,1,.528.3l2.673,3.564h.032v-3.2a.588.588,0,0,1,.627-.66.61.61,0,0,1,.627.66v4.817a.559.559,0,0,1-.627.594.661.661,0,0,1-.528-.231L360,813.973h-.035v3.168a.559.559,0,0,1-.627.594Q358.709,817.735,358.71,817.141Z" transform="translate(-340.925 -784.64)" fill="#432020"/>
</svg>
