<svg xmlns="http://www.w3.org/2000/svg" width="62.01" height="57.464" viewBox="0 0 62.01 57.464">
  <g id="黑胶唱片-copy" transform="translate(-64.2 -129.2)">
    <path id="路径_1655" data-name="路径 1655" d="M75.5,217.971A26.171,26.171,0,1,0,101.671,191.8,26.171,26.171,0,0,0,75.5,217.971Z" transform="translate(-10.518 -58.268)"/>
    <path id="路径_1656" data-name="路径 1656" d="M240.7,371.74A14.74,14.74,0,1,0,255.44,357,14.74,14.74,0,0,0,240.7,371.74Z" transform="translate(-164.286 -212.036)" fill="#fff"/>
    <path id="路径_1657" data-name="路径 1657" d="M303.1,429.821A10.422,10.422,0,1,0,313.521,419.4,10.422,10.422,0,0,0,303.1,429.821Z" transform="translate(-222.368 -270.118)"/>
    <path id="路径_1658" data-name="路径 1658" d="M302.91,430.421a11.21,11.21,0,1,1,11.21-11.21A11.225,11.225,0,0,1,302.91,430.421Zm0-20.85a9.64,9.64,0,1,0,9.646,9.64A9.651,9.651,0,0,0,302.91,409.571Z" transform="translate(-211.757 -259.507)" fill="#2d2b2b"/>
    <path id="路径_1659" data-name="路径 1659" d="M405.9,525.508a3.308,3.308,0,1,0,3.308-3.308A3.308,3.308,0,0,0,405.9,525.508Z" transform="translate(-318.054 -365.804)" fill="#fff"/>
    <path id="路径_1660" data-name="路径 1660" d="M398.6,518.993a4.1,4.1,0,1,1,4.1-4.1A4.1,4.1,0,0,1,398.6,518.993Zm0-6.622a2.526,2.526,0,1,0,2.526,2.526A2.531,2.531,0,0,0,398.6,512.371Z" transform="translate(-307.443 -355.193)" fill="#2d415c"/>
    <path id="路径_1661" data-name="路径 1661" d="M567.041,766.214l-1.066-1.841a.134.134,0,0,1,.048-.18l5.225-3.017a.134.134,0,0,1,.18.048l1.066,1.841a.134.134,0,0,1-.048.18l-5.225,3.017A.134.134,0,0,1,567.041,766.214Z" transform="translate(-467.037 -588.228)"/>
    <path id="路径_1662" data-name="路径 1662" d="M788.9,146.043a5.543,5.543,0,1,0,5.543-5.543A5.543,5.543,0,0,0,788.9,146.043Z" transform="translate(-674.551 -10.518)"/>
    <path id="路径_1663" data-name="路径 1663" d="M119.892,129.2a6.326,6.326,0,0,0-2.415,12.172c-.284,1.183-.927,3.834-1.758,7.231a27.005,27.005,0,1,0,.99,2.526c1.052-4.277,1.91-7.847,2.27-9.342a6.5,6.5,0,0,0,.907.062,6.325,6.325,0,0,0,.007-12.65ZM91.153,185.093A25.389,25.389,0,1,1,115.076,151.2c-1.654,6.733-3.591,14.477-4.27,16.573-.955,2.927-4.456,4.567-5.647,5.045a1.377,1.377,0,0,0-1.744-.311l-4.422,2.547a1.373,1.373,0,0,0-.505,1.875l.6,1.045a1.368,1.368,0,0,0,1.875.5l4.422-2.554a1.38,1.38,0,0,0,.574-1.751c1.557-.65,5.225-2.512,6.332-5.924.609-1.882,2.166-8.02,3.654-14.034a25.416,25.416,0,0,1-24.794,30.884Zm13.3-10.428-4.1,2.367-.415-.713,4.1-2.367Zm15.439-34.385a4.761,4.761,0,1,1,4.761-4.761A4.77,4.77,0,0,1,119.892,140.279Z" fill="#fff"/>
    <path id="路径_1664" data-name="路径 1664" d="M840.2,193.793a1.993,1.993,0,1,0,1.993-1.993A1.993,1.993,0,0,0,840.2,193.793Z" transform="translate(-722.301 -58.268)"/>
    <path id="路径_1665" data-name="路径 1665" d="M831.675,185.95a2.775,2.775,0,1,1,2.775-2.775A2.779,2.779,0,0,1,831.675,185.95Zm0-3.979a1.208,1.208,0,1,0,1.2,1.211A1.2,1.2,0,0,0,831.675,181.971Z" transform="translate(-711.783 -47.657)" fill="#fff"/>
  </g>
</svg>
