<svg xmlns="http://www.w3.org/2000/svg" width="51.58" height="51.58" viewBox="0 0 51.58 51.58">
  <g id="查找" transform="translate(-85.333 -85.333)">
    <path id="路径_776" data-name="路径 776" d="M109.009,85.333a23.675,23.675,0,1,0,23.674,23.674,23.674,23.674,0,0,0-23.674-23.674Zm0,4.127A19.548,19.548,0,1,1,89.46,109.007,19.548,19.548,0,0,1,109.009,89.46Z" transform="translate(0 0)" fill="#2c2c2c"/>
    <path id="路径_777" data-name="路径 777" d="M704.151,704.17a2.063,2.063,0,0,1,2.785-.121l.132.121,10.085,10.085a2.063,2.063,0,0,1-2.786,3.038l-.132-.121L704.15,707.087a2.063,2.063,0,0,1,0-2.917Z" transform="translate(-580.844 -580.862)" fill="#2c2c2c"/>
  </g>
</svg>
