<svg xmlns="http://www.w3.org/2000/svg" width="35.346" height="35.346" viewBox="0 0 35.346 35.346">
  <g transform="translate(-181.234 -1510.245)">
    <path id="search" d="M28.941,26.565l7.2,7.2-2.377,2.377-7.2-7.2a15.129,15.129,0,1,1,2.377-2.377ZM25.57,25.318a11.761,11.761,0,1,0-.252.252Z" transform="translate(179.734 1508.745)" fill="#252525"/>
    <path id="search_-_轮廓" data-name="search - 轮廓" d="M33.762,36.846l-7.239-7.239a15.673,15.673,0,1,1,3.084-3.084l7.239,7.239ZM26.6,28.271l7.16,7.16,1.67-1.67-7.16-7.16.28-.349a14.464,14.464,0,0,0,3.2-9.127A14.625,14.625,0,1,0,17.125,31.75a14.464,14.464,0,0,0,9.127-3.2Zm-9.477,1.118a12.261,12.261,0,1,1,8.8-3.723l-.005.005-.257.257A12.2,12.2,0,0,1,17.125,29.389Zm0-23.528a11.264,11.264,0,1,0,7.842,19.352l.246-.246A11.265,11.265,0,0,0,17.125,5.861Z" transform="translate(179.734 1508.745)" fill="#252525"/>
  </g>
</svg>
