<svg xmlns="http://www.w3.org/2000/svg" width="39.987" height="36.267" viewBox="0 0 39.987 36.267">
  <path id="减去_167" data-name="减去 167" d="M34.323,44.136H19.361A5.042,5.042,0,0,1,15,41.6L7.521,28.541a5.127,5.127,0,0,1,0-5.076L15,10.407a5.042,5.042,0,0,1,4.36-2.538H34.323a5.042,5.042,0,0,1,4.361,2.538l7.48,13.058a5.127,5.127,0,0,1,0,5.076L38.683,41.6A5.041,5.041,0,0,1,34.323,44.136Zm-7.481-26.9A8.767,8.767,0,1,0,35.54,26,8.743,8.743,0,0,0,26.842,17.236Zm0,13.842A5.076,5.076,0,1,1,31.878,26,5.061,5.061,0,0,1,26.842,31.079Z" transform="translate(-6.849 -7.87)" fill="#282829"/>
</svg>
