<svg xmlns="http://www.w3.org/2000/svg" width="31.254" height="31.253" viewBox="0 0 31.254 31.253">
  <g id="shipin-5" transform="translate(-66.523 -67.168)">
    <path id="路径_409" data-name="路径 409" d="M95.035,95.88H90.692a15.625,15.625,0,1,0-8.53,2.541H95.035a1.271,1.271,0,1,0,0-2.541Zm-25.969-13.1a13.1,13.1,0,1,1,13.1,13.1A13.1,13.1,0,0,1,69.066,82.784Z" fill="#6f6f6f"/>
    <path id="路径_410" data-name="路径 410" d="M399.487,368.123a1.775,1.775,0,0,1-1.776-1.776V358.76a1.776,1.776,0,0,1,2.664-1.539l6.568,3.793a1.777,1.777,0,0,1,0,3.077l-6.568,3.793A1.777,1.777,0,0,1,399.487,368.123Zm.757-8.05v4.962l4.3-2.48ZM406.31,363ZM405.676,361.9Z" transform="translate(-319.561 -279.641)" fill="#6f6f6f" stroke="#707070" stroke-width="1"/>
  </g>
</svg>
