<svg xmlns="http://www.w3.org/2000/svg" width="72.459" height="72.459" viewBox="0 0 72.459 72.459">
  <g id="组_2809" data-name="组 2809" transform="translate(-102 -1127.001)">
    <g id="写作" transform="translate(102 1127.001)">
      <path id="路径_1590" data-name="路径 1590" d="M328.413,295.774a.814.814,0,0,0,.592-.241L344.64,279.88a.851.851,0,0,0-1.2-1.2L327.8,294.331a.851.851,0,0,0,.611,1.443Zm-3.59,7.235,4.034-1.258a10.529,10.529,0,0,0-1.85-2.627,9.6,9.6,0,0,0-2.535-1.684l-1.258,4.052a5.093,5.093,0,0,1,.777.648A6.9,6.9,0,0,1,324.823,303.009Z" transform="translate(-300.344 -258.749)" fill="#595757"/>
      <path id="路径_1591" data-name="路径 1591" d="M147.793,120.038a27.755,27.755,0,1,0,27.755,27.755A27.755,27.755,0,0,0,147.793,120.038ZM131.01,157.822l2.961-9.492a.555.555,0,0,1,.111-.2.87.87,0,0,1,.111-.167l18.67-18.651a1.221,1.221,0,0,1,1.258-.278,13.84,13.84,0,0,1,4.459,2.664,14.506,14.506,0,0,1,2.757,4.552,1.092,1.092,0,0,1-.259,1.184l-18.688,18.54-.167.111a1.242,1.242,0,0,1-.222.111l-9.492,2.961a1.055,1.055,0,0,1-.333,0,1.129,1.129,0,0,1-1.092-1.462Zm32.473,5.551H132.028a1.147,1.147,0,1,1,0-2.276h31.455a1.147,1.147,0,0,1,0,2.276Z" transform="translate(-111.545 -111.545)" fill="#595757"/>
      <path id="路径_1592" data-name="路径 1592" d="M36.262,72.473A36.229,36.229,0,1,1,72.473,36.256,36.229,36.229,0,0,1,36.262,72.473Zm0-70.59a34.379,34.379,0,1,0,34.36,34.373A34.379,34.379,0,0,0,36.262,1.883Z" transform="translate(-0.014 -0.014)" fill="#595757"/>
    </g>
  </g>
</svg>
