<svg id="意见反馈_1" data-name="意见反馈 1" xmlns="http://www.w3.org/2000/svg" width="37.722" height="40.87" viewBox="0 0 37.722 40.87">
  <path id="路径_1554" data-name="路径 1554" d="M135.2,159.243H147.3v-3H135.2a7.2,7.2,0,0,0-7.2,7.2V188.11a7.2,7.2,0,0,0,7.2,7.2h22.777a7.2,7.2,0,0,0,7.2-7.2V174.6h-3V188.11a4.191,4.191,0,0,1-4.191,4.191H135.2A4.191,4.191,0,0,1,131,188.11V163.434a4.195,4.195,0,0,1,4.191-4.193Z" transform="translate(-128 -154.435)" fill="#282829"/>
  <path id="路径_1555" data-name="路径 1555" d="M363.978,140.426l-.425,7.89a1.485,1.485,0,0,0,.036.421,1.553,1.553,0,0,0,.242.533,1.537,1.537,0,0,0,.194.222,1.689,1.689,0,0,0,.232.18,1.517,1.517,0,0,0,.264.13,1.473,1.473,0,0,0,.871.056l7.694-1.788a1.437,1.437,0,0,0,.447-.182,1.5,1.5,0,0,0,.364-.314l14.106-16.812a5.506,5.506,0,0,0-.679-7.758l-1.133-.951a5.506,5.506,0,0,0-7.758.679l-14.106,16.81a1.534,1.534,0,0,0-.246.415,1.494,1.494,0,0,0-.1.471Zm2.683,6.054,5.259-1.222L385.7,128.831a2.5,2.5,0,0,0-.308-3.527l-1.133-.951a2.5,2.5,0,0,0-3.527.308l-13.784,16.427-.29,5.391Z" transform="translate(-351.574 -120.761)" fill="#282829"/>
  <path id="路径_1556" data-name="路径 1556" d="M386.678,453.579l1.136.981,6.322,5.479,1.135.983,1.967-2.271-1.135-.981-6.322-5.479-1.136-.983Z" transform="translate(-373.525 -434.501)" fill="#282829"/>
</svg>
