<svg xmlns="http://www.w3.org/2000/svg" width="46.319" height="47.472" viewBox="0 0 46.319 47.472">
  <path id="yonghuxieyi" d="M82.67,0a6.134,6.134,0,0,1,6.316,5.934v35.6a6.134,6.134,0,0,1-6.316,5.934H48.983a6.134,6.134,0,0,1-6.316-5.934V5.934A6.134,6.134,0,0,1,48.983,0ZM72.143,33.626H55.3a1.982,1.982,0,1,0,0,3.956H72.143a1.982,1.982,0,1,0,0-3.956Zm0-7.912H55.3a1.982,1.982,0,1,0,0,3.956H72.143a1.982,1.982,0,1,0,0-3.956ZM65.826,5.934H55.3a2.045,2.045,0,0,0-2.105,1.978V18.134a1.963,1.963,0,0,0,1.1,1.736,2.222,2.222,0,0,0,2.147-.071l2.99-1.8A2.22,2.22,0,0,1,61.7,18l2.99,1.8a2.222,2.222,0,0,0,2.147.071,1.963,1.963,0,0,0,1.1-1.736V7.912A2.045,2.045,0,0,0,65.826,5.934Z" transform="translate(-42.667)" fill="#272727"/>
</svg>
