<svg xmlns="http://www.w3.org/2000/svg" width="44.67" height="28.655" viewBox="0 0 44.67 28.655">
  <path id="视频_1_" data-name="视频 (1)" d="M160.388,250.812a1.6,1.6,0,0,1-.442.738q-.444.527-.95,1.243a13.981,13.981,0,0,0-.948,1.559,3.665,3.665,0,0,0-.442,1.728,3.543,3.543,0,0,0,.442,1.707,11.866,11.866,0,0,0,.948,1.5,10.427,10.427,0,0,0,.95,1.117c.294.294.442.484.442.569v4.425a3.3,3.3,0,0,1-.527,1.622,8.676,8.676,0,0,1-1.306,1.707,7.4,7.4,0,0,1-1.729,1.327,3.7,3.7,0,0,1-1.791.527H134.092a5.306,5.306,0,0,1-2.085-.4,5.194,5.194,0,0,1-1.666-1.116,5.125,5.125,0,0,1-1.116-1.686,5.47,5.47,0,0,1-.4-2.107V247.1a4.536,4.536,0,0,1,.379-1.749,5.736,5.736,0,0,1,1.075-1.665,6.144,6.144,0,0,1,1.643-1.264,4.367,4.367,0,0,1,2.087-.506h20.944a5.623,5.623,0,0,1,2.129.4,5.48,5.48,0,0,1,1.727,1.1,5.009,5.009,0,0,1,1.16,1.665,5.118,5.118,0,0,1,.421,2.065v3.666Zm13.106-3.961v19.259a2.865,2.865,0,0,1-.485,1.643,1.638,1.638,0,0,1-1.454.716,2.125,2.125,0,0,1-.864-.253,9.7,9.7,0,0,1-1.052-.59q-.528-.337-.991-.674a6.236,6.236,0,0,1-.675-.547q-.547-.464-1.664-1.6a32.875,32.875,0,0,1-2.256-2.571,23.367,23.367,0,0,1-2-2.95,5.716,5.716,0,0,1-.862-2.781,5.973,5.973,0,0,1,.927-2.886,21.908,21.908,0,0,1,2.233-3.182,31.6,31.6,0,0,1,2.739-2.887,23.3,23.3,0,0,1,2.4-2q.378-.253,1.031-.611a2.477,2.477,0,0,1,1.16-.358q1.137,0,1.475.632a3.279,3.279,0,0,1,.337,1.559v.084Zm0,0" transform="translate(-128.825 -241.92)" fill="#6a0bff"/>
</svg>
