<svg xmlns="http://www.w3.org/2000/svg" width="39.047" height="39.007" viewBox="0 0 39.047 39.007">
  <path id="系统消息" d="M83.713,98.895c0,4.191-3.214,2.027-3.214,2.027L66.578,89.211h-2.15a2.432,2.432,0,0,1-2.411-2.454V76.941a2.432,2.432,0,0,1,2.411-2.454H67L80.5,63.036s3.215-2.181,3.215,2.045V98.895Zm7.231-10.5a7.913,7.913,0,0,0,0-12.269c-1.473-.886-2.41,2.045-2.41,2.045s3.749,4.7,0,8.18c-.737.954.669,2.931,2.41,2.045ZM92.953,69.17c-.536-.478-3.147,1.295-1.607,2.862,7.968,6.749,8.1,13.088,0,20.04-1.206,1.159.4,3.341,1.607,2.863,11.048-5.113,10.58-20.994,0-25.765Zm0,0" transform="translate(-62.017 -62.473)" fill="#3a3a3a"/>
</svg>
