<svg xmlns="http://www.w3.org/2000/svg" width="614.464" height="409.602" viewBox="0 0 614.464 409.602">
  <path id="视频_5_" data-name="视频 (5)" d="M616.64,678.4c0,21.12-16.384,38.4-36.544,38.4H241.28c-20.16,0-36.544-17.28-36.544-38.4V345.6c0-21.12,16.384-38.4,36.544-38.4H580.032c20.16,0,36.48,17.28,36.48,38.4V678.4Zm-93.5-171.9a20.8,20.8,0,0,0-10.56-17.984l-130.56-90.56-.064-.064a21.76,21.76,0,0,0-10.944-2.944,21.248,21.248,0,0,0-21.5,20.928V597.12c0,11.52,9.6,20.864,21.5,20.864a21.576,21.576,0,0,0,10.88-2.88l.32-.128,130.368-90.5a20.8,20.8,0,0,0,10.56-17.984ZM780.16,341.76l-105.6,69.056v202.3l104.9,68.48a26.432,26.432,0,0,0,16.768,5.888c12.672,0,22.976-11.136,22.976-24.832V361.216c0-13.7-10.3-24.832-23.04-24.832a26.048,26.048,0,0,0-16,5.312Z" transform="translate(-204.736 -307.199)" fill="#dbdbdb"/>
</svg>
