<svg id="观看" xmlns="http://www.w3.org/2000/svg" width="40.361" height="27.063" viewBox="0 0 40.361 27.063">
  <path id="路径_1543" data-name="路径 1543" d="M49.281,188.2c-11.145,0-20.181,6.06-20.181,13.532s9.035,13.532,20.181,13.532,20.181-6.06,20.181-13.532S60.426,188.2,49.281,188.2Zm0,22.792a9.261,9.261,0,1,1,9.261-9.261A9.26,9.26,0,0,1,49.281,210.992Z" transform="translate(-29.1 -188.2)" fill="#8f5252"/>
  <path id="路径_1544" data-name="路径 1544" d="M381.4,381.4m-5.7,0a5.7,5.7,0,1,0,5.7-5.7A5.7,5.7,0,0,0,375.7,381.4Z" transform="translate(-361.216 -367.864)" fill="#8f5252"/>
</svg>
