<svg xmlns="http://www.w3.org/2000/svg" width="30.865" height="36.477" viewBox="0 0 30.865 36.477">
  <g id="公开_1_" data-name="公开 (1)" transform="translate(0 0)">
    <path id="路径_1306" data-name="路径 1306" d="M249.013,317.882a9.821,9.821,0,1,0,9.821,9.821,9.832,9.832,0,0,0-9.821-9.821m0-2.806A12.627,12.627,0,1,1,236.386,327.7,12.627,12.627,0,0,1,249.013,315.076Z" transform="translate(-236.386 -303.853)"/>
    <path id="路径_1307" data-name="路径 1307" d="M80.251,13.609a1.4,1.4,0,0,0,1.4-1.4V10.242a7.027,7.027,0,1,1,14.03,0v1.964a1.4,1.4,0,1,0,2.806,0V10.242a9.829,9.829,0,1,0-19.641,0v1.964a1.4,1.4,0,0,0,1.4,1.4Zm0,6.033a1.4,1.4,0,0,1,1.4,1.4v5.612a1.4,1.4,0,1,1-2.806,0V21.044a1.4,1.4,0,0,1,1.4-1.4Z" transform="translate(-67.624 0)"/>
  </g>
</svg>
