<svg xmlns="http://www.w3.org/2000/svg" width="27.464" height="24.019" viewBox="0 0 27.464 24.019">
  <path id="声音-开" d="M63.937,136.829a2.5,2.5,0,0,1-2.5-2.5v-8.738a2.5,2.5,0,0,1,2.5-2.5H68.93l5.231-4.533a2.5,2.5,0,0,1,4.132,1.887v19.025a2.5,2.5,0,0,1-4.132,1.887l-5.231-4.533Zm20.872-15.711a10.936,10.936,0,0,1,0,17.065.936.936,0,1,1-1.172-1.461,9.062,9.062,0,0,0,0-14.144.936.936,0,1,1,1.172-1.461Zm-3.5,3.693a6.005,6.005,0,0,1,0,10.3.936.936,0,1,1-1.029-1.564,4.138,4.138,0,0,0,0-7.174.936.936,0,1,1,1.029-1.564Z" transform="translate(-61.44 -117.953)" fill="#333"/>
</svg>
