<svg xmlns="http://www.w3.org/2000/svg" width="48.062" height="47.999" viewBox="0 0 48.062 47.999">
  <path id="通话" d="M217.654,218.619a4.232,4.232,0,0,1-.81.687c-7.575,6.528-22.308,3.061-33.485-8.1s-14.654-25.876-8.115-33.44a3.916,3.916,0,0,1,.687-.81c3.906-3.455,8.847-2.274,10.738-1.666,1.294.315,3.05,12.291,1.868,15.949-2.116,1.745-4.243,3.6-3.579,6.449a41.238,41.238,0,0,0,11.965,11.942c2.848.642,4.7-1.474,6.438-3.59,3.658-1.182,15.645.563,15.971,1.868.6,1.891,1.778,6.821-1.677,10.715Z" transform="translate(-171.956 -174.589)"/>
</svg>
