<svg id="钱包" xmlns="http://www.w3.org/2000/svg" width="40.352" height="48.117" viewBox="0 0 40.352 48.117">
  <path id="路径_1541" data-name="路径 1541" d="M312.427,253.981c-1.38,0-3.681-1.841-4.6-1.841s-2.3.46-1.84,3.681a12.511,12.511,0,0,0,3.22,5.521,3.486,3.486,0,0,0,1.841.92h13.8a2.389,2.389,0,0,0,1.841-.92,12.519,12.519,0,0,0,3.22-5.521c.46-2.76-1.38-3.22-2.3-3.22s-3.22,1.84-4.6,1.84-3.221-1.379-5.062-1.379c-2.3,0-4.143.92-5.52.92Zm25.3,38.915a14.354,14.354,0,0,0-1.84-2.761c-.459-.46-.921-1.84-.46-5.061.92-6.441-.46-11.042-2.3-13.342a11.884,11.884,0,0,0-7.822-5.521H310.582c-2.3,0-5.521,1.841-7.822,5.521-1.84,2.3-3.22,6.9-2.3,13.342a10.394,10.394,0,0,1-.459,5.061c-.46.921-1.38,1.841-1.841,2.761-.46,1.841-.46,3.221.46,4.6,2.3,2.76,5.981,2.76,9.2,2.76H328.99c2.761,0,5.981-.46,7.821-2.76C338.192,296.115,338.652,294.275,337.731,292.9Zm-12.8-7.4a1.266,1.266,0,0,1,0,2.533h-5.655v4.312a1.266,1.266,0,1,1-2.533,0v-4.314H311.4a1.266,1.266,0,0,1,0-2.533h5.345v-2.216H311.4a1.266,1.266,0,0,1,0-2.533h4.524l-4.283-4.282a1.266,1.266,0,0,1,1.789-1.789l4.744,4.743,4.743-4.746a1.266,1.266,0,1,1,1.789,1.789l-4.282,4.282h4.506a1.266,1.266,0,1,1,0,2.533h-5.651v2.216Z" transform="translate(-297.858 -252.14)" fill="#ff4e4e"/>
  <path id="路径_1542" data-name="路径 1542" d="M508.826,555.442h-.716A1.26,1.26,0,0,1,508.826,555.442Z" transform="translate(-488.314 -526.837)" fill="#ff4e4e"/>
</svg>
