<svg xmlns="http://www.w3.org/2000/svg" width="133.12" height="120" viewBox="0 0 133.12 120">
  <g id="组_2537" data-name="组 2537" transform="translate(1921 -116)">
    <g id="组_2536" data-name="组 2536" transform="translate(-2241 -490)">
      <circle id="椭圆_1939" data-name="椭圆 1939" cx="60" cy="60" r="60" transform="translate(320 606)" fill="#fff"/>
      <g id="组_2479" data-name="组 2479" transform="translate(-6.829 -18.478)">
        <path id="路径_1385" data-name="路径 1385" d="M5.966,2.074c21.738-4.893,77.283.408,77.283.408a5.966,5.966,0,0,1,5.966,5.966V53.054a6.215,6.215,0,0,1-5.966,5.966c-22.508-3.03-77.283-.408-77.283-.408S.338,56.463,0,52.645C2.544,38.284,0,8.039,0,8.039,0,4.745,1.092,2.793,5.966,2.074Z" transform="translate(361.226 636.208) rotate(31)" fill="#ffb520"/>
        <g id="矩形_4867" data-name="矩形 4867" transform="translate(452.696 637.545) rotate(49)" fill="#000941" stroke="#707070" stroke-width="1">
          <rect width="11.056" height="77.405" rx="5.528" stroke="none"/>
          <rect x="0.5" y="0.5" width="10.056" height="76.405" rx="5.028" fill="none"/>
        </g>
        <g id="多边形_143" data-name="多边形 143" transform="matrix(-0.602, -0.799, 0.799, -0.602, 383.961, 707.735)" fill="#fff">
          <path d="M 7.080001831054688 22.67524719238281 L 1.194321751594543 22.67524719238281 C 0.9911817312240601 22.67524719238281 0.8669417500495911 22.56308555603027 0.8109617233276367 22.49623680114746 C 0.7549817562103271 22.42937660217285 0.6664117574691772 22.28736686706543 0.7021117210388184 22.08737564086914 L 3.644941806793213 5.602416515350342 C 3.714971780776978 5.210146427154541 4.067251682281494 5.190286159515381 4.137161731719971 5.190286159515381 C 4.207071781158447 5.190286159515381 4.559351921081543 5.210146427154541 4.629381656646729 5.602416515350342 L 7.572211742401123 22.08737564086914 C 7.607911586761475 22.28736686706543 7.519341945648193 22.42937660217285 7.463361740112305 22.49623680114746 C 7.407381534576416 22.56308555603027 7.283141613006592 22.67524719238281 7.080001831054688 22.67524719238281 Z" stroke="none"/>
          <path d="M 4.137161731719971 5.690286636352539 L 1.194321632385254 22.17524719238281 L 7.079991817474365 22.17524719238281 L 4.137161731719971 5.690286636352539 M 4.137161731719971 4.690280914306641 C 4.580331802368164 4.690280914306641 5.023501396179199 4.965036392211914 5.121602058410645 5.514545440673828 L 8.064432144165039 21.9995059967041 C 8.17385196685791 22.6124153137207 7.702601909637451 23.17524719238281 7.080001831054688 23.17524719238281 L 1.194321632385254 23.17524719238281 C 0.5717215538024902 23.17524719238281 0.1004714965820312 22.6124153137207 0.2098913192749023 21.9995059967041 L 3.152721881866455 5.514545440673828 C 3.250821590423584 4.965036392211914 3.693991661071777 4.690280914306641 4.137161731719971 4.690280914306641 Z" stroke="none" fill="#707070"/>
        </g>
        <line id="直线_544" data-name="直线 544" y1="21.795" x2="11.969" transform="translate(360.362 668.579)" fill="none" stroke="#fff" stroke-linecap="round" stroke-width="3"/>
        <line id="直线_545" data-name="直线 545" y1="13.344" x2="6.989" transform="translate(369.222 681.324)" fill="none" stroke="#fff" stroke-linecap="round" stroke-width="4"/>
        <line id="直线_546" data-name="直线 546" y1="26.708" x2="14.1" transform="translate(379.294 673.566)" fill="none" stroke="#fff" stroke-linecap="round" stroke-width="3"/>
        <line id="直线_547" data-name="直线 547" y1="10.278" x2="6.2" transform="translate(352.828 675.782)" fill="none" stroke="#fff" stroke-linecap="round" stroke-width="2"/>
        <rect id="矩形_4869" data-name="矩形 4869" width="1.193" height="42.748" rx="0.597" transform="translate(433.538 662.035) rotate(49)" fill="#fff"/>
        <ellipse id="椭圆_1950" data-name="椭圆 1950" cx="1" cy="1.5" rx="1" ry="1.5" transform="translate(435 659.63)" fill="#fff"/>
        <path id="路径_1386" data-name="路径 1386" d="M2817.967,19843.375c3.4,1.012,3.4,4.938,3.4,4.992" transform="translate(-2372.726 -19195.418)" fill="none" stroke="#fff" stroke-linecap="round" stroke-width="1"/>
        <path id="路径_1387" data-name="路径 1387" d="M2817.967,19843.375c3.986,1.664,3.4,4.938,3.4,4.992" transform="translate(-2370.339 -19197.914)" fill="none" stroke="#fff" stroke-linecap="round" stroke-width="1"/>
        <path id="路径_1388" data-name="路径 1388" d="M2817.967,19843.375c3.86,1.59,3.4,4.938,3.4,4.992" transform="translate(-2368.133 -19200.41)" fill="none" stroke="#fff" stroke-linecap="round" stroke-width="1"/>
      </g>
    </g>
  </g>
</svg>
