<svg xmlns="http://www.w3.org/2000/svg" width="81.304" height="58.316" viewBox="0 0 81.304 58.316">
  <g id="组_2810" data-name="组 2810" transform="translate(-571.001 -1125.678)">
    <g id="写作_1_" data-name="写作 (1)" transform="translate(571.001 1125.678)">
      <path id="路径_1585" data-name="路径 1585" d="M162.3,510.454l2.151-.872-3.739-3.739-1.188,2.932a44.888,44.888,0,0,0-15.959-5.183s-4.07,4.322-4.816,6.671c0,0,23.966,2.7,33.785,22.072l0-12.117a36.088,36.088,0,0,0-10.237-9.766Z" transform="translate(-132.014 -475.199)" fill="#595757"/>
      <path id="路径_1586" data-name="路径 1586" d="M132.214,633.25s-16.1-20.814-34.345-16.826c0,0-2.028,5.19-1.88,7.548C95.989,623.973,117.349,618.84,132.214,633.25Z" transform="translate(-93.135 -577.316)" fill="#595757"/>
      <path id="路径_1587" data-name="路径 1587" d="M64.893,525.4s-.634,5.782.159,8.119c0,0,20.133-10.979,39.033-.494C104.084,533.022,82.2,516.417,64.893,525.4Zm74.068-15.132c-.746-2.349-4.815-6.671-4.815-6.671-20.323,2.693-28.972,16.627-28.972,16.627v12.117C114.994,512.963,138.961,510.265,138.961,510.265Z" transform="translate(-64.653 -475.2)" fill="#595757"/>
      <path id="路径_1588" data-name="路径 1588" d="M529.3,633.25c14.865-14.411,36.225-9.278,36.225-9.278.15-2.358-1.88-7.548-1.88-7.548C545.4,612.435,529.3,633.25,529.3,633.25Z" transform="translate(-487.076 -577.315)" fill="#595757"/>
      <path id="路径_1589" data-name="路径 1589" d="M444.917,241.334c-17.307-8.98-39.192,7.625-39.192,7.625,18.9-10.485,39.034.494,39.034.494C445.551,247.117,444.917,241.334,444.917,241.334ZM419.741,205.49l-7.158-7.16L396.709,214.2l7.16,7.16Zm5.468-5.5c.079-.073.159-.143.238-.223a5.058,5.058,0,0,0-7.077-7.227l-.014-.014-4.605,4.6,7.16,7.158,4.3-4.3Zm-22.6,22.628-7.16-7.158-1.691,5.111,3.74,3.739Z" transform="translate(-363.854 -191.137)" fill="#595757"/>
    </g>
  </g>
</svg>
