<svg xmlns="http://www.w3.org/2000/svg" width="42.19" height="39.633" viewBox="0 0 42.19 39.633">
  <g id="组_2931" data-name="组 2931" transform="translate(-55.165 -1344.683)">
    <path id="合集icon" d="M110.674,147.11a2.021,2.021,0,0,1,1.078-1.786l17.788-9.4a4.714,4.714,0,0,1,4.407,0l17.791,9.4a2.02,2.02,0,0,1,0,3.572l-17.791,9.4a4.714,4.714,0,0,1-4.407,0l-17.791-9.4a2.021,2.021,0,0,1-1.072-1.786Zm6.344,0,14.413,7.619a.673.673,0,0,0,.628,0l14.413-7.619-14.413-7.619a.674.674,0,0,0-.63,0l-14.413,7.619Zm-6.11,7.139a2.02,2.02,0,0,1,2.729-.843l17.791,9.4a.674.674,0,0,0,.63,0l17.791-9.4a2.02,2.02,0,0,1,1.886,3.572l-17.788,9.4a4.714,4.714,0,0,1-4.407,0l-17.791-9.4a2.02,2.02,0,0,1-.841-2.732Zm2.729,7.239a2.02,2.02,0,1,0-1.886,3.572l17.788,9.4a4.714,4.714,0,0,0,4.407,0l17.791-9.4a2.02,2.02,0,1,0-1.889-3.572l-17.791,9.4a.673.673,0,0,1-.63,0l-17.791-9.4Z" transform="translate(-55.459 1209.308)" fill="#fff"/>
  </g>
</svg>
