<?xml version="1.0" encoding="UTF-8"?>
<svg id="_图层_2" data-name="图层 2" xmlns="http://www.w3.org/2000/svg" viewBox="0 0 39.22 44.7">
  <defs>
    <style>
      .cls-1 {
        fill: none;
        stroke: #000;
        stroke-linecap: round;
        stroke-miterlimit: 10;
        stroke-width: 3.6px;
      }
    </style>
  </defs>
  <g id="_图层_1-2" data-name="图层 1">
    <path class="cls-1" d="m23.43,42.9c-4.66-.07-9.94.39-14.05-2.24-4.82-3.09-7.03-8.37-7.4-13.94-.29-4.37-.33-8.9.75-13.16.85-3.33,2.12-5.97,4.85-8.13,3.06-2.42,6.95-3.5,10.81-3.62s8.18.39,11.54,2.44c.18.11.35.22.52.34,6.83,4.6,6.97,13.31,6.97,20.72,0,1.74-.03,3.55-.63,5.21-.74,2.02-2.46,3.18-4.64,3.26-3.38.14-5.4-2.56-5.9-5.59-.37-2.28-.08-4.61-.05-6.92s-.26-4.75-1.61-6.62c-1.81-2.49-5.22-3.16-8.01-1.9-1.97.89-3.07,2.89-3.4,4.95-.44,2.72-.51,4.49-.19,7.22.29,2.44,1.27,5.35,3,6.6s3.39.96,4.84,1.03"/>
  </g>
</svg>