<svg xmlns="http://www.w3.org/2000/svg" width="36.175" height="39.102" viewBox="0 0 36.175 39.102">
  <g id="图层_1" data-name="图层 1" transform="translate(-13.015 -13.002)">
    <path id="路径_1453" data-name="路径 1453" d="M34.545,50.076c-4.214-.058-8.979.334-12.7-1.914-4.358-2.633-6.352-7.146-6.688-11.892a34.128,34.128,0,0,1,.675-11.23A11.728,11.728,0,0,1,20.22,18.1a17.17,17.17,0,0,1,9.766-3.088c3.506-.1,7.393.329,10.433,2.085.16.091.316.188.471.286,6.171,3.921,6.3,11.359,6.3,17.683a12.266,12.266,0,0,1-.571,4.443,4.431,4.431,0,0,1-4.2,2.786c-3.05.118-4.877-2.182-5.327-4.773a31.844,31.844,0,0,1-.044-5.905,8.92,8.92,0,0,0-1.459-5.648,6.15,6.15,0,0,0-7.242-1.62,5.421,5.421,0,0,0-3.075,4.222,18.587,18.587,0,0,0-.171,6.159c.26,2.082,1.15,4.567,2.708,5.632s3.066.815,4.372.877" transform="translate(0 0)" fill="none" stroke="#000" stroke-linecap="round" stroke-miterlimit="10" stroke-width="4"/>
  </g>
</svg>
